<?xml version="1.0" encoding="UTF-8"?>
<svg version="1.1" xmlns="http://www.w3.org/2000/svg" width="512" height="512">
<path d="M0 0 C168.96 0 337.92 0 512 0 C512 168.96 512 337.92 512 512 C343.04 512 174.08 512 0 512 C0 343.04 0 174.08 0 0 Z " fill="#D8D8D8" transform="translate(0,0)"/>
<path d="M0 0 C1.22589844 0.3403125 2.45179688 0.680625 3.71484375 1.03125 C17.87503933 5.35675866 30.04838385 11.97080174 41 22 C41.85207031 22.77085938 42.70414063 23.54171875 43.58203125 24.3359375 C57.61084363 37.65361193 67.33280226 55.28208066 72 74 C72.22429687 74.81726563 72.44859375 75.63453125 72.6796875 76.4765625 C77.540072 97.44945452 73.48437641 120.91766183 64 140 C63.32324219 141.3921875 63.32324219 141.3921875 62.6328125 142.8125 C59.16698913 149.55680494 54.92403924 155.25680451 50 161 C49.33355469 161.82371094 48.66710937 162.64742187 47.98046875 163.49609375 C33.6393596 180.55110481 10.96980956 192.36601738 -11 195 C-16.3985806 195.34086779 -21.77914993 195.44057122 -27.1875 195.4375 C-27.91677704 195.43790283 -28.64605408 195.43830566 -29.39743042 195.4387207 C-40.65687274 195.4028985 -50.61141285 194.59108529 -61 190 C-61.66161133 189.71592285 -62.32322266 189.4318457 -63.00488281 189.13916016 C-90.31975224 177.22522775 -109.31174238 156.26376687 -120.31640625 128.703125 C-124.05211096 118.06119128 -125.33277585 107.74371909 -125.25 96.5 C-125.25773438 95.44941406 -125.26546875 94.39882812 -125.2734375 93.31640625 C-125.2168484 70.42611447 -116.29171047 49.64669611 -102 32 C-101.49855469 31.34515625 -100.99710938 30.6903125 -100.48046875 30.015625 C-77.49190799 1.13086278 -34.69019587 -9.78745003 0 0 Z " fill="#D7D7D7" transform="translate(261,41)"/>
<path d="M0 0 C13.81484706 5.10812394 26.84741277 12.1301699 38.37695312 21.30273438 C39.04082031 21.79128906 39.7046875 22.27984375 40.38867188 22.78320312 C48.46579244 29.03815333 52.35584314 37.9066149 53.93945312 47.82617188 C55.17296496 58.68548145 56.08414273 69.55757593 56.91210938 80.45507812 C57.31902146 85.74668545 57.8208872 91.02485771 58.37695312 96.30273438 C59.09351074 96.56876465 59.81006836 96.83479492 60.54833984 97.10888672 C71.91126729 101.3713627 71.91126729 101.3713627 74.37695312 106.30273438 C74.49700765 107.799228 74.55226764 109.30148231 74.56445312 110.80273438 C74.57863281 111.59679687 74.5928125 112.39085937 74.60742188 113.20898438 C74.37695312 115.30273438 74.37695312 115.30273438 72.37695312 117.30273438 C69.25195312 117.42773438 69.25195312 117.42773438 66.37695312 117.30273438 C66.59351563 119.25179687 66.59351563 119.25179687 66.81445312 121.24023438 C66.89566406 121.97113281 66.976875 122.70203125 67.06054688 123.45507812 C67.19581927 125.31413666 67.19581927 125.31413666 68.37695312 126.30273438 C70.16303102 126.3878756 71.95213038 126.41091952 73.74023438 126.40820312 C98.54021422 126.6423011 98.54021422 126.6423011 108.30273438 134.93945312 C113.54448027 140.30630036 115.48074111 146.99730798 115.75195312 154.36523438 C115.53463905 159.97193757 114.63131702 164.7978856 110.79492188 169.06054688 C105.245515 174.06589425 100.81832608 175.53434373 93.42553711 175.47705078 C87.39196231 175.13205419 81.48893461 173.94675932 75.56445312 172.80273438 C74.87551971 172.6719046 74.1865863 172.54107483 73.47677612 172.40628052 C63.02492911 170.40777766 52.70967216 168.02339801 42.43945312 165.24023438 C41.25697998 164.92441406 40.07450684 164.60859375 38.85620117 164.28320312 C22.44178587 159.65668682 22.44178587 159.65668682 19.16235352 154.32983398 C16.34789065 147.0657727 19.75387409 139.15471092 22.37695312 132.30273438 C24.26573531 128.13785516 26.35461223 124.08007935 28.47460938 120.02929688 C30.30240449 116.52471843 31.86299405 112.95321513 33.37695312 109.30273438 C32.71695313 109.30273438 32.05695313 109.30273438 31.37695312 109.30273438 C29.04551694 105.65986534 28.83568535 102.55555262 29.37695312 98.30273438 C32.68823904 95.38101151 36.06372626 94.80427238 40.37695312 94.30273438 C38.76550216 86.78008413 36.82535806 79.3869817 34.75927734 71.9777832 C33.48422223 67.39452854 32.24192258 62.81725401 31.15429688 58.18554688 C28.19420355 45.86376563 24.26882745 39.24296937 13.31445312 32.24023438 C7.89153298 29.06952468 2.3447331 26.1531689 -3.2199707 23.2409668 C-17.67777432 15.58594622 -17.67777432 15.58594622 -21.62304688 9.30273438 C-22.20633114 5.2197445 -22.30126389 3.21481932 -19.81054688 -0.13476562 C-13.14711405 -3.40115427 -6.88668114 -2.34160974 0 0 Z " fill="#D7D7D7" transform="translate(287.623046875,253.697265625)"/>
<path d="M0 0 C4.58727006 3.41378237 6.63056211 7.55798703 8 13 C8.45239815 17.1944344 8.47446268 21.34665121 8.4375 25.5625 C8.43210205 26.74110596 8.4267041 27.91971191 8.42114258 29.1340332 C8.13259653 46.13543991 5.96564535 63.40128926 -3 78.125 C-3.38808838 78.7653418 -3.77617676 79.40568359 -4.17602539 80.06542969 C-11.20425901 91.39402466 -19.96165921 101.25337356 -29 111 C-30.31918185 112.47321062 -31.63239006 113.95180881 -32.9375 115.4375 C-33.46214844 116.03433594 -33.98679688 116.63117188 -34.52734375 117.24609375 C-37.94625702 120.86091448 -37.94625702 120.86091448 -38.875 125.4375 C-38.10235129 128.06625454 -38.10235129 128.06625454 -36.4375 130.3125 C-34.38854116 134.14316218 -34.65125903 136.67561203 -35 141 C-35.66 141.99 -36.32 142.98 -37 144 C-37.66 144 -38.32 144 -39 144 C-38.96519531 144.64066406 -38.93039063 145.28132812 -38.89453125 145.94140625 C-38.71012429 151.83364766 -39.2695542 155.76664555 -42 161 C-41.05125 161.061875 -40.1025 161.12375 -39.125 161.1875 C-29.48967657 162.64445415 -21.93623744 168.52518674 -16 176 C-12.64627582 181.79026964 -10.85502146 187.43218939 -10.875 194.125 C-10.87113281 195.42824219 -10.87113281 195.42824219 -10.8671875 196.7578125 C-11 199 -11 199 -12 201 C-25.01870834 201.3308547 -37.36289734 201.53410498 -50 198 C-51.00289062 197.73316406 -52.00578125 197.46632813 -53.0390625 197.19140625 C-62.55703557 194.24162121 -68.88463816 188.58912397 -73.66015625 179.875 C-74.81482129 177.5936187 -75.94838144 175.30145429 -77.0625 173 C-77.66325775 171.79045451 -78.26564892 170.58171901 -78.86962891 169.3737793 C-80.05315772 167.00138992 -81.22531941 164.6244456 -82.39208984 162.24365234 C-83.77511098 159.45367074 -85.20193112 156.69969879 -86.67578125 153.95703125 C-87.05532959 153.24095703 -87.43487793 152.52488281 -87.82592773 151.78710938 C-88.79331728 149.96624677 -89.76744471 148.14896813 -90.7421875 146.33203125 C-92.37528744 142.00583793 -92.59329217 139.61398756 -92 135 C-88.95286771 130.34134895 -85.18941131 127.38087276 -80.5625 124.3125 C-80.01529297 123.93544922 -79.46808594 123.55839844 -78.90429688 123.16992188 C-69.80554647 117 -69.80554647 117 -65 117 C-64.896875 116.236875 -64.79375 115.47375 -64.6875 114.6875 C-63.9318384 111.73355011 -63.53785617 110.66273336 -61 109 C-56.35066514 108.39356502 -53.79265048 109.32283496 -50 112 C-49.73751465 111.30519531 -49.4750293 110.61039062 -49.20458984 109.89453125 C-47.88112008 106.71434123 -46.34418191 103.72885679 -44.7265625 100.6875 C-44.4064772 100.08506973 -44.08639191 99.48263947 -43.75660706 98.86195374 C-42.71580036 96.90631879 -41.6706575 94.95304501 -40.625 93 C-40.2695108 92.33370575 -39.91402161 91.6674115 -39.54776001 90.98092651 C-34.43899634 81.40951638 -29.21124392 71.91905599 -23.71923828 62.56054688 C-17.76463146 52.35264946 -15.47948343 43.26579939 -14.5390625 31.4609375 C-14.45922119 30.46191406 -14.37937988 29.46289062 -14.29711914 28.43359375 C-14.14416749 26.43965179 -14.00219097 24.44482828 -13.87280273 22.44921875 C-13.32825462 15.11688773 -12.45051906 7.54902761 -8.1875 1.375 C-5.15706609 -0.52984417 -3.51723146 -0.6460221 0 0 Z " fill="#252121" transform="translate(243,264)"/>
<path d="M0 0 C5.12755354 4.20999133 8.4643668 10.60851214 11.97265625 16.1328125 C13.93419184 19.10565459 13.93419184 19.10565459 16.7109375 21.56640625 C19.25097012 24.26681636 19.66203427 25.18828146 19.5625 28.8125 C19.28409 33.861503 18.07888078 37.95080528 15 42 C13.06490539 43.670789 11.26358667 44.76531636 9 46 C10.29025661 46.09802862 10.29025661 46.09802862 12.0625 44.5 C15.84699933 42.5674897 18.88675853 42.24626465 23 43 C32.87943469 46.53397902 40.23610462 52.62348103 45.08984375 61.88671875 C47.156758 66.685863 47.08605578 70.83665314 47 76 C29.83474023 76.66733191 11.4251418 75.29197421 -1.875 63.4375 C-3.72106311 61.31995702 -4.94739015 59.58367872 -6 57 C-6.66 57 -7.32 57 -8 57 C-0.07667463 68.21790395 7.89693794 72.57133198 21.39575195 75.06005859 C29.86723956 76.45898365 38.43128067 76.72989906 47 77 C46.505 78.485 46.505 78.485 46 80 C29.355781 80.92041764 7.04649669 79.3375859 -6 68 C-11.3811455 60.92950977 -15.26008487 52.83814534 -19.125 44.875 C-20.1256389 42.82976648 -21.12821564 40.78547982 -22.1328125 38.7421875 C-22.60879883 37.76991211 -23.08478516 36.79763672 -23.57519531 35.79589844 C-25.27817242 32.45414144 -27.15213928 29.23608496 -29.11279297 26.03955078 C-30.18506083 23.57457398 -30.1579153 21.66026537 -30 19 C-27.01389945 22.59815842 -25.14163164 26.5689663 -23.125 30.75 C-20.92339449 35.25171459 -18.72278194 39.65857768 -16 43.875 C-14 47 -14 47 -14 49 C-13.34 49 -12.68 49 -12 49 C-12.37809814 48.34515625 -12.75619629 47.6903125 -13.14575195 47.015625 C-14.87420978 44.01394321 -16.59340202 41.0070513 -18.3125 38 C-18.90740234 36.97003906 -19.50230469 35.94007813 -20.11523438 34.87890625 C-28 21.04752968 -28 21.04752968 -28 14.7890625 C-25.57563565 8.02735882 -17.46898613 3.46304829 -11.25 0.375 C-7.1359128 -1.20170008 -4.25129276 -1.52404835 0 0 Z " fill="#D6D6D6" transform="translate(183,384)"/>
<path d="M0 0 C13.81484706 5.10812394 26.84741277 12.1301699 38.37695312 21.30273438 C39.04082031 21.79128906 39.7046875 22.27984375 40.38867188 22.78320312 C48.46579244 29.03815333 52.35584314 37.9066149 53.93945312 47.82617188 C54.93595436 56.59894171 55.77076573 65.37867748 56.50195312 74.17773438 C56.58960938 75.21075684 56.67726563 76.2437793 56.76757812 77.30810547 C57.29808801 83.98761001 57.48103951 90.60320599 57.37695312 97.30273438 C55.27246374 97.16163452 53.16836542 97.01469263 51.06445312 96.86523438 C49.30681641 96.74341797 49.30681641 96.74341797 47.51367188 96.61914062 C44.37695312 96.30273438 44.37695312 96.30273438 41.37695312 95.30273438 C40.47314453 93.05639648 40.47314453 93.05639648 39.72851562 90.08007812 C39.4477417 88.99130371 39.16696777 87.9025293 38.87768555 86.78076172 C38.444198 85.02820068 38.444198 85.02820068 38.00195312 83.24023438 C37.38860166 80.85546663 36.772719 78.47134846 36.15429688 76.08789062 C35.70352783 74.34209717 35.70352783 74.34209717 35.24365234 72.56103516 C33.8182092 67.20217199 32.1394909 61.94013685 30.41992188 56.66992188 C29.63900296 54.14875293 29.01637424 51.72139067 28.44726562 49.15429688 C25.85515081 39.82646765 17.93640795 34.94263024 9.94726562 30.27148438 C5.60181669 27.84634222 1.1888018 25.54823004 -3.2199707 23.2409668 C-17.67777432 15.58594622 -17.67777432 15.58594622 -21.62304688 9.30273438 C-22.20633114 5.2197445 -22.30126389 3.21481932 -19.81054688 -0.13476562 C-13.14711405 -3.40115427 -6.88668114 -2.34160974 0 0 Z " fill="#262122" transform="translate(287.623046875,253.697265625)"/>
<path d="M0 0 C1.22589844 0.3403125 2.45179688 0.680625 3.71484375 1.03125 C17.87503933 5.35675866 30.04838385 11.97080174 41 22 C41.85207031 22.77085938 42.70414063 23.54171875 43.58203125 24.3359375 C57.61084363 37.65361193 67.33280226 55.28208066 72 74 C72.22429687 74.81726563 72.44859375 75.63453125 72.6796875 76.4765625 C77.540072 97.44945452 73.48437641 120.91766183 64 140 C63.32324219 141.3921875 63.32324219 141.3921875 62.6328125 142.8125 C59.16698913 149.55680494 54.92403924 155.25680451 50 161 C49.33355469 161.82371094 48.66710937 162.64742187 47.98046875 163.49609375 C33.6393596 180.55110481 10.96980956 192.36601738 -11 195 C-16.3985806 195.34086779 -21.77914993 195.44057122 -27.1875 195.4375 C-27.91677704 195.43790283 -28.64605408 195.43830566 -29.39743042 195.4387207 C-40.65687274 195.4028985 -50.61141285 194.59108529 -61 190 C-61.66161133 189.71592285 -62.32322266 189.4318457 -63.00488281 189.13916016 C-90.31975224 177.22522775 -109.31174238 156.26376687 -120.31640625 128.703125 C-124.05211096 118.06119128 -125.33277585 107.74371909 -125.25 96.5 C-125.25773438 95.44941406 -125.26546875 94.39882812 -125.2734375 93.31640625 C-125.2168484 70.42611447 -116.29171047 49.64669611 -102 32 C-101.49855469 31.34515625 -100.99710938 30.6903125 -100.48046875 30.015625 C-77.49190799 1.13086278 -34.69019587 -9.78745003 0 0 Z M-92 27 C-92.63679688 27.55171875 -93.27359375 28.1034375 -93.9296875 28.671875 C-109.05701758 42.7535371 -120.03579309 65.78196133 -121.12475586 86.35717773 C-121.91989377 112.49764602 -116.71787285 138.68014516 -98.4375 158.4375 C-96.64298602 160.31032554 -94.82313851 162.15472931 -93 164 C-92.14341797 164.96486328 -92.14341797 164.96486328 -91.26953125 165.94921875 C-76.62040795 182.10467864 -52.93408527 191.19127353 -31.54296875 192.4140625 C-5.2226405 193.17821647 19.27718786 184.60383232 39 167 C39.83144531 166.26265625 40.66289062 165.5253125 41.51953125 164.765625 C58.0144687 149.25886353 68.85285756 125.94833493 70.21875 103.38671875 C70.24966554 99.91258519 70.15992245 96.4703172 70 93 C69.95359375 91.41445312 69.95359375 91.41445312 69.90625 89.796875 C68.74859104 66.29639802 57.9227809 43.34443921 41 27 C19.44084269 7.58366721 -5.59859463 -0.20587587 -34.46533203 0.85644531 C-56.7704279 2.11972757 -75.4465297 12.57409171 -92 27 Z " fill="#0E0E0E" transform="translate(261,41)"/>
<path d="M0 0 C6.55808081 -0.37121212 6.55808081 -0.37121212 8.5625 1.3125 C9.036875 1.869375 9.51125 2.42625 10 3 C11.010625 3.495 12.02125 3.99 13.0625 4.5 C16 6 16 6 18 9 C18.36141955 11.32914823 18.69699525 13.66253478 19 16 C19.33 16.33 19.66 16.66 20 17 C21.02505656 24.76114253 18.11296701 30.4994603 14 37 C12.06535764 39.23156589 10.54321895 40.41755265 8 42 C7.01 42 6.02 42 5 42 C5.103125 42.928125 5.20625 43.85625 5.3125 44.8125 C5.209375 45.864375 5.10625 46.91625 5 48 C1.25045716 50.97757813 -1.60794061 51.34259536 -6.3125 51.1875 C-7.91544922 51.14689453 -7.91544922 51.14689453 -9.55078125 51.10546875 C-10.35902344 51.07066406 -11.16726563 51.03585938 -12 51 C-12.29132813 51.79921875 -12.58265625 52.5984375 -12.8828125 53.421875 C-17.64799763 66.18897478 -22.82236624 76.81831742 -32 87 C-32.99193359 88.11568359 -32.99193359 88.11568359 -34.00390625 89.25390625 C-44.84060087 100.79115486 -58.81080626 105.76359214 -74.375 106.3125 C-80.12256835 106.26942401 -85.42162349 105.52410362 -91 104.25 C-92.05840088 104.01470581 -92.05840088 104.01470581 -93.13818359 103.7746582 C-97.73668141 102.63242948 -101.22482272 100.98100889 -105 98 C-106 95.375 -106 95.375 -106 93 C-104 91 -104 91 -102.15234375 90.734375 C-101.05599609 90.74210937 -101.05599609 90.74210937 -99.9375 90.75 C-99.22464844 90.74484375 -98.51179688 90.7396875 -97.77734375 90.734375 C-95.33050871 90.96839017 -93.18367291 91.41407658 -90.8046875 91.99609375 C-76.82801779 95.22270118 -60.54765956 94.18279866 -48.1875 86.75 C-33.79549318 76.8387184 -25.62705516 61.25593712 -20 45 C-20.680625 44.79375 -21.36125 44.5875 -22.0625 44.375 C-27.0664653 42.03271837 -30.94334112 38.58498832 -34 34 C-34.55299539 28.69124424 -34.55299539 28.69124424 -32.5 26.125 C-32.005 25.75375 -31.51 25.3825 -31 25 C-31.309375 24.34 -31.61875 23.68 -31.9375 23 C-33.55944481 18.42039113 -34.857795 14.36397027 -33.16796875 9.70703125 C-32.18623308 7.74702894 -31.15435709 5.86282518 -30 4 C-29.01 4 -28.02 4 -27 4 C-27.66 5.010625 -28.32 6.02125 -29 7.0625 C-31.14630391 10.86452407 -31.64046744 13.59678637 -31 18 C-28.22901464 23.54197072 -23.71249298 27.13392566 -19 31 C-19.66 31.33 -20.32 31.66 -21 32 C-21.47050781 31.62746094 -21.94101562 31.25492188 -22.42578125 30.87109375 C-23.35970703 30.16146484 -23.35970703 30.16146484 -24.3125 29.4375 C-24.92738281 28.96183594 -25.54226563 28.48617187 -26.17578125 27.99609375 C-26.77777344 27.66738281 -27.37976563 27.33867187 -28 27 C-29.485 27.495 -29.485 27.495 -31 28 C-31.43882443 31.77389013 -31.4295782 33.44570555 -29.0625 36.5 C-18.51499276 45.11020999 -10.70444604 48.61670007 3 48 C3.33 46.35 3.66 44.7 4 43 C2.35 42.67 0.7 42.34 -1 42 C-1 41.67 -1 41.34 -1 41 C-0.40832031 40.91363281 0.18335938 40.82726562 0.79296875 40.73828125 C6.33249899 39.75327506 9.55197511 38.72871985 13 34 C15.50748377 28.98503246 17.27329552 24.66835155 17 19 C16.319375 19.99 15.63875 20.98 14.9375 22 C12.67398697 24.70595608 12.19839967 24.96457149 8.5 25.625 C4.56704829 24.9226872 2.83688385 23.75091768 0 21 C0.75925781 21.10699219 1.51851563 21.21398437 2.30078125 21.32421875 C3.29464844 21.44410156 4.28851563 21.56398438 5.3125 21.6875 C6.79169922 21.87892578 6.79169922 21.87892578 8.30078125 22.07421875 C11.00325824 22.25310617 11.00325824 22.25310617 12.79296875 20.70703125 C15.41164009 17.00360285 15.31334884 13.38688375 15 9 C13.45737187 6.89641619 12.31891683 6.15945841 10 5 C10 7.31 10 9.62 10 12 C9.01 11.505 9.01 11.505 8 11 C7.40644386 8.35139573 7.25790731 5.70802678 7 3 C4.69 2.34 2.38 1.68 0 1 C0 0.67 0 0.34 0 0 Z " fill="#2E2628" transform="translate(456,106)"/>
<path d="M0 0 C4.90084615 1.37223692 7.72132557 4.73918921 10.140625 8.984375 C15.79863035 21.53141615 16.72850688 36.35249916 12.953125 49.546875 C11.13022099 53.95111754 9.14496701 57.48049004 5.578125 60.671875 C1.81317099 61.92685967 -0.25054203 61.74571699 -4.046875 60.546875 C-10.21334262 56.0157966 -13.72457009 47.88614292 -15.046875 40.546875 C-15.4252009 36.4602415 -15.52750867 32.39972588 -15.546875 28.296875 C-15.55315918 27.27924072 -15.55944336 26.26160645 -15.56591797 25.21313477 C-15.41845384 16.43329229 -13.96305046 8.38506178 -7.78515625 1.80859375 C-5.18339845 -0.07987314 -3.15981772 -0.3135697 0 0 Z " fill="#F3F6F6" transform="translate(263.046875,67.453125)"/>
<path d="M0 0 C10.26163566 0.22147415 19.91217317 6.761834 27.4375 13.375 C28.9158226 16.33164519 28.49782783 19.11729737 28.4375 22.375 C26.4575 23.365 26.4575 23.365 24.4375 24.375 C24.4375 23.715 24.4375 23.055 24.4375 22.375 C22.10535852 21.16871992 19.94107861 20.2095262 17.4375 19.375 C17.98019531 19.82230469 18.52289063 20.26960938 19.08203125 20.73046875 C27.03657834 27.45241935 27.03657834 27.45241935 28.4375 31.375 C28.55836404 36.45128975 28.01272946 41.56142191 24.4375 45.375 C19.96196333 46.89668247 16.99734369 46.45081237 12.75 44.6875 C9.40093678 43.01868351 6.61790787 41.50341129 4.4375 38.375 C4.125 35.6875 4.125 35.6875 4.4375 33.375 C5.4375 32.375 5.4375 32.375 9 32.3125 C10.134375 32.333125 11.26875 32.35375 12.4375 32.375 C9.70799225 31.01024613 7.46754728 31.31439905 4.4375 31.375 C3.1175 31.375 1.7975 31.375 0.4375 31.375 C-0.2225 30.715 -0.8825 30.055 -1.5625 29.375 C-3.22322849 28.69367549 -4.890267 28.02757873 -6.5625 27.375 C-7.5525 26.715 -8.5425 26.055 -9.5625 25.375 C-12.51996492 24.79154524 -12.51996492 24.79154524 -15.5625 25.375 C-17.8716666 27.67802869 -17.8716666 27.67802869 -19.5625 30.375 C-20.2225 31.035 -20.8825 31.695 -21.5625 32.375 C-22.21771906 24.83998082 -19.59044863 18.90513281 -15.875 12.4375 C-12.53865474 9.46184072 -8.83273143 8.49730441 -4.5625 7.375 C-5.5525 7.045 -6.5425 6.715 -7.5625 6.375 C-6.57476455 1.43632275 -5.02843855 0.07869231 0 0 Z " fill="#F7F7F7" transform="translate(59.5625,284.625)"/>
<path d="M0 0 C6.26961246 0.2507845 11.90091909 2.42094627 16.72265625 6.43359375 C18.67618379 8.82920397 18.19844985 11.02325219 18 14 C15.03 14 12.06 14 9 14 C10.423125 14.185625 11.84625 14.37125 13.3125 14.5625 C14.11300781 14.66691406 14.91351563 14.77132812 15.73828125 14.87890625 C18.16817116 15.14755178 18.16817116 15.14755178 21 14 C21 14.66 21 15.32 21 16 C21.721875 16.268125 22.44375 16.53625 23.1875 16.8125 C26 18 26 18 28.375 19.625 C31.86926472 21.45532914 34.10990152 21.56583251 38 21 C40.37657725 18.71709187 40.37657725 18.71709187 42 16 C42.66 15.34 43.32 14.68 44 14 C44.65558497 21.53922712 42.16400807 27.75398789 38 34 C34.34519251 37.65480749 31.06606419 38.30917306 26 39 C27.32 39.33 28.64 39.66 30 40 C29.625 42.4375 29.625 42.4375 29 45 C24.6339656 47.1830172 19.12703207 46.52260412 14.50390625 45.38671875 C6.84453819 42.60483627 -1.42852269 37.85721596 -6 31 C-6.125 27.8125 -6.125 27.8125 -6 25 C-4.68 24.34 -3.36 23.68 -2 23 C0.31 24.65 2.62 26.3 5 28 C4.278125 27.29875 3.55625 26.5975 2.8125 25.875 C-5.78058511 17.28191489 -5.78058511 17.28191489 -6.3125 11.75 C-5.87792077 6.53504918 -3.63177212 3.63177212 0 0 Z " fill="#F8F8F8" transform="translate(430,109)"/>
<path d="M0 0 C1.25390625 1.56640625 1.25390625 1.56640625 1.06640625 4.12890625 C0.25390625 6.56640625 0.25390625 6.56640625 -1.74609375 8.56640625 C-3.59375 8.61328125 -3.59375 8.61328125 -5.80859375 8.31640625 C-6.52144531 8.22875 -7.23429687 8.14109375 -7.96875 8.05078125 C-10.34357554 7.63660633 -12.63239599 7.108108 -14.97265625 6.5390625 C-28.64044145 3.46285746 -44.27091437 4.51583583 -56.43359375 11.62890625 C-68.60721043 20.00701313 -78.90133091 34.19913458 -82.74609375 48.56640625 C-83.27736596 51.08241836 -83.27736596 51.08241836 -82.74609375 53.56640625 C-80.63545583 55.80833534 -80.63545583 55.80833534 -77.87109375 57.69140625 C-74.8126292 59.93079482 -72.86461634 61.38862237 -70.74609375 64.56640625 C-70.40651812 68.64131377 -70.43276889 70.09641896 -72.74609375 73.56640625 C-73.40609375 73.23640625 -74.06609375 72.90640625 -74.74609375 72.56640625 C-74.41609375 72.23640625 -74.08609375 71.90640625 -73.74609375 71.56640625 C-73.27314477 67.46751505 -73.15182416 65.35237571 -75.68359375 62.00390625 C-81.2907874 57.54103783 -86.69773734 53.37367713 -93.74609375 51.56640625 C-92.75609375 51.07140625 -92.75609375 51.07140625 -91.74609375 50.56640625 C-92.24109375 49.08140625 -92.24109375 49.08140625 -92.74609375 47.56640625 C-89.02913526 29.39135724 -75.66963561 11.00266468 -60.43359375 0.81640625 C-44.57005083 -8.82053106 -15.62685112 -12.83009925 0 0 Z " fill="#2F2729" transform="translate(160.74609375,235.43359375)"/>
<path d="M0 0 C0.33 0 0.66 0 1 0 C1 1.65 1 3.3 1 5 C2.11117188 5.02578125 3.22234375 5.0515625 4.3671875 5.078125 C15.07386993 5.44055318 24.87402544 6.13615365 33 14 C34.17673198 16.35346396 34.16623866 17.8806033 34.1875 20.5 C34.20167969 21.2940625 34.21585937 22.088125 34.23046875 22.90625 C34 25 34 25 32 27 C28.875 27.125 28.875 27.125 26 27 C26.144375 28.299375 26.28875 29.59875 26.4375 30.9375 C26.51871094 31.66839844 26.59992188 32.39929688 26.68359375 33.15234375 C26.81886614 35.01140229 26.81886614 35.01140229 28 36 C29.78607789 36.08514123 31.57517726 36.10818515 33.36328125 36.10546875 C58.16326109 36.33956673 58.16326109 36.33956673 67.92578125 44.63671875 C73.16752715 50.00356598 75.10378799 56.69457361 75.375 64.0625 C75.15768592 69.6692032 74.25436389 74.49515123 70.41796875 78.7578125 C64.86856188 83.76315988 60.44137295 85.23160935 53.04858398 85.17431641 C47.01500919 84.82931982 41.11198148 83.64402495 35.1875 82.5 C34.49856659 82.36917023 33.80963318 82.23834045 33.099823 82.10354614 C22.64797598 80.10504328 12.33271904 77.72066363 2.0625 74.9375 C0.88002686 74.62167969 -0.30244629 74.30585938 -1.52075195 73.98046875 C-17.93516725 69.35395245 -17.93516725 69.35395245 -21.21459961 64.02709961 C-24.02906247 56.76303832 -20.62307904 48.85197655 -18 42 C-16.11121782 37.83512078 -14.02234089 33.77734498 -11.90234375 29.7265625 C-10.07454864 26.22198406 -8.51395907 22.65048076 -7 19 C-7.66 19 -8.32 19 -9 19 C-11.33143618 15.35713096 -11.54126778 12.25281824 -11 8 C-7.68871408 5.07827713 -4.31322686 4.50153801 0 4 C0 2.68 0 1.36 0 0 Z M-5 19 C-6.94658445 22.97478387 -8.88058373 26.95556876 -10.8125 30.9375 C-11.35970703 32.05447266 -11.90691406 33.17144531 -12.47070312 34.32226562 C-18.93930021 46.19541958 -18.93930021 46.19541958 -20 59 C-11.18080993 66.85270349 3.42018837 70.70028723 15 71 C15 71.66 15 72.32 15 73 C4.17456574 70.49560849 -5.63401585 67.70553859 -15.41015625 62.35546875 C-17.80814407 60.84543088 -17.80814407 60.84543088 -20 61 C-18.57929492 64.4333706 -17.10779716 65.9883488 -14 68 C-3.99163842 72.05332357 6.46326786 74.424967 17 76.625 C18.3465162 76.91330676 19.69287091 77.2023688 21.0390625 77.4921875 C24.36046168 78.20439536 27.68528346 78.89868128 31.01193237 79.58590698 C33.03002626 80.00625415 35.0453945 80.4382612 37.06079102 80.87133789 C43.40736855 82.21588548 49.43332235 83.38866013 55.9375 83.1875 C57.10152344 83.16042969 58.26554687 83.13335937 59.46484375 83.10546875 C60.30144531 83.07066406 61.13804687 83.03585937 62 83 C62 82.67 62 82.34 62 82 C61.13761719 81.90203125 60.27523437 81.8040625 59.38671875 81.703125 C48.78007504 80.40389515 38.42876495 78.31251408 28 76 C33.56856101 76.40503775 38.77638928 77.14275313 44.1875 78.5625 C49.16700491 79.74978409 53.90033446 80.3790717 59 80.5 C60.216875 80.5309375 61.43375 80.561875 62.6875 80.59375 C66.96106001 79.82773453 68.34455313 78.37621102 71 75 C74.33880631 68.69787623 74.09390145 60.88706729 72.1953125 54.140625 C68.68539021 46.152526 62.70526466 42.31444121 54.8125 39.125 C46.31802537 36.61087353 35.31994982 36.75803148 27 40 C23.1740266 42.18627051 20.06490108 44.85251176 17 48 C20.13922331 43.47951843 23.21495828 41.48454089 28 39 C27.34 38.01 26.68 37.02 26 36 C25.85671616 34.17037564 25.77959657 32.33498763 25.75 30.5 C25.52365295 26.15133214 25.52365295 26.15133214 22.75 23 C21.5125 22.67 20.275 22.34 19 22 C18.04222656 21.72800781 17.08445312 21.45601563 16.09765625 21.17578125 C8.91402977 19.28805063 2.39518123 18.84251389 -5 19 Z " fill="#534D4F" transform="translate(328,344)"/>
<path d="M0 0 C2.70669914 1.72244491 4.52187509 3.03791939 5.9609375 5.93359375 C7.04257144 8.08466275 8.24893353 9.54741749 9.875 11.3125 C12.82681972 14.65500175 14.9126525 18.06615279 17 22 C17.66 22 18.32 22 19 22 C20.5635348 25.12706959 20.39958487 28.57982443 20 32 C19.34 32.99 18.68 33.98 18 35 C17.34 35 16.68 35 16 35 C16.05220703 35.96099609 16.05220703 35.96099609 16.10546875 36.94140625 C16.28987571 42.83364766 15.7304458 46.76664555 13 52 C13.94875 52.061875 14.8975 52.12375 15.875 52.1875 C25.51032343 53.64445415 33.06376256 59.52518674 39 67 C42.35372418 72.79026964 44.14497854 78.43218939 44.125 85.125 C44.12886719 86.42824219 44.12886719 86.42824219 44.1328125 87.7578125 C44 90 44 90 43 92 C29.98129166 92.3308547 17.63710266 92.53410498 5 89 C3.99710938 88.73316406 2.99421875 88.46632813 1.9609375 88.19140625 C-7.55703557 85.24162121 -13.88463816 79.58912397 -18.66015625 70.875 C-19.81482129 68.5936187 -20.94838144 66.30145429 -22.0625 64 C-22.66325775 62.79045451 -23.26564892 61.58171901 -23.86962891 60.3737793 C-25.05315772 58.00138992 -26.22531941 55.6244456 -27.39208984 53.24365234 C-28.77511098 50.45367074 -30.20193112 47.69969879 -31.67578125 44.95703125 C-32.05532959 44.24095703 -32.43487793 43.52488281 -32.82592773 42.78710938 C-33.79331728 40.96624677 -34.76744471 39.14896813 -35.7421875 37.33203125 C-37.37528744 33.00583793 -37.59329217 30.61398756 -37 26 C-33.95286771 21.34134895 -30.18941131 18.38087276 -25.5625 15.3125 C-25.01529297 14.93544922 -24.46808594 14.55839844 -23.90429688 14.16992188 C-14.80554647 8 -14.80554647 8 -10 8 C-9.896875 7.236875 -9.79375 6.47375 -9.6875 5.6875 C-8.27018248 0.14707695 -5.52772865 -0.77388201 0 0 Z M-32 23 C-34.16510464 30.6762801 -30.30995737 36.79083923 -26.67919922 43.40673828 C-23.53367679 48.98560918 -20.29032341 54.50547935 -17 60 C-17.66 60 -18.32 60 -19 60 C-19.23976562 59.33484375 -19.47953125 58.6696875 -19.7265625 57.984375 C-21.32975154 54.22720805 -23.33195691 50.78202652 -25.375 47.25 C-28.59609664 41.61452835 -31.5301348 36.01358482 -34 30 C-34.33 30 -34.66 30 -35 30 C-34.48833888 35.22291427 -33.26569007 39.03872441 -30.83203125 43.67578125 C-30.35608772 44.59087715 -30.35608772 44.59087715 -29.87052917 45.52445984 C-29.20034366 46.80847545 -28.52523636 48.08993306 -27.84545898 49.36889648 C-26.82335973 51.29206646 -25.81565124 53.22219997 -24.81054688 55.15429688 C-15.6462574 74.29106611 -15.6462574 74.29106611 1 86 C11.76079352 89.01581137 22.74469871 91.16155134 33.9375 91.0625 C34.96327148 91.05573242 34.96327148 91.05573242 36.00976562 91.04882812 C37.67321604 91.0371956 39.3366205 91.01926694 41 91 C41.495 89.515 41.495 89.515 42 88 C40.22109375 87.94392578 40.22109375 87.94392578 38.40625 87.88671875 C4.25495243 86.59845927 4.25495243 86.59845927 -7.2578125 75.90234375 C-9.50382119 73.39718021 -11.49272071 71.01455859 -13 68 C-12.34 68 -11.68 68 -11 68 C-10.773125 68.556875 -10.54625 69.11375 -10.3125 69.6875 C-6.33339367 76.6983064 0.95706109 81.15585486 8.4375 83.6875 C19.2239484 86.61715265 30.87085935 87.43266637 42 87 C42.6405353 78.35277347 40.28520002 71.41333801 34.75 64.6875 C29.14665272 58.73544656 22.29690378 54.4851343 14.125 53.5625 C9.25705657 53.64579181 6.65273287 55.95605594 3 59 C8 54 8 54 10.1875 52 C14.00288384 47.78992128 14.68493756 43.15269017 14.5703125 37.6015625 C13.67010414 33.4951326 11.21472294 31.33466295 8.29296875 28.43359375 C4.945633 24.88096995 2.52446424 20.83413714 -0.04296875 16.69921875 C-2.63495814 13.12423938 -4.95427704 10.34258519 -9.44921875 9.58984375 C-17.43576097 10.87405039 -27.11509513 16.46894911 -32 23 Z " fill="#4A4547" transform="translate(188,373)"/>
<path d="M0 0 C0.97815674 0.10803955 1.95631348 0.2160791 2.96411133 0.32739258 C4.77045044 0.54431763 4.77045044 0.54431763 6.61328125 0.765625 C8.16616584 0.94182907 9.71915228 1.11713692 11.2722168 1.29174805 C15.74551829 1.79922623 20.21585398 2.32916549 24.68554688 2.86743164 C26.56441776 3.09247062 28.44365832 3.31444305 30.32324219 3.53344727 C33.06399281 3.85285269 35.80353196 4.18125655 38.54296875 4.51171875 C39.79773514 4.65558266 39.79773514 4.65558266 41.07785034 4.80235291 C45.16657447 5.30617163 48.93561162 5.77531961 52.61328125 7.765625 C53.55078125 10.265625 53.55078125 10.265625 53.61328125 12.765625 C51.61328125 14.765625 51.61328125 14.765625 49.47753906 15.02905273 C41.96238806 14.98010083 34.77125069 14.04115964 27.36328125 12.828125 C24.97706662 12.46541778 22.59034704 12.10601648 20.203125 11.75 C13.75551695 10.78775235 13.75551695 10.78775235 11.03955078 10.36523438 C3.54575444 9.0985965 3.54575444 9.0985965 -3.63671875 10.8515625 C-5.82162617 12.65763516 -7.54432612 14.60963362 -9.38671875 16.765625 C-10.84081082 18.26142642 -12.31996859 19.72942064 -13.80249023 21.19702148 C-15.38019318 22.75916379 -16.94190527 24.33624129 -18.50390625 25.9140625 C-21.34419534 28.75435159 -24.32679983 31.38344392 -27.38671875 33.984375 C-29.86425382 36.19092967 -32.17982081 38.53096637 -34.51171875 40.890625 C-44.1816127 50.60494419 -44.1816127 50.60494419 -48.19921875 51.140625 C-50.38671875 50.765625 -50.38671875 50.765625 -51.38671875 49.765625 C-51.921875 47.16796875 -51.921875 47.16796875 -51.38671875 43.765625 C-49.18168519 40.93677359 -46.52897054 38.67065453 -43.82421875 36.328125 C-42.40523026 35.05973364 -40.98725455 33.79020831 -39.5703125 32.51953125 C-38.87043213 31.89925049 -38.17055176 31.27896973 -37.44946289 30.63989258 C-34.83771393 28.26678371 -32.36278384 25.77581952 -29.88549805 23.26391602 C-28.18737086 21.56634205 -26.41474668 19.99451521 -24.57421875 18.453125 C-21.31796559 15.652115 -18.2807254 12.69584163 -15.26171875 9.640625 C-14.41222656 8.79628906 -13.56273437 7.95195312 -12.6875 7.08203125 C-11.3607841 5.74630539 -10.05333996 4.38944202 -8.8046875 2.98046875 C-5.92950872 0.00586016 -3.90979448 -0.45053732 0 0 Z " fill="#060606" transform="translate(238.38671875,147.234375)"/>
<path d="M0 0 C5.84399317 4.21989056 8.20774514 11.29822622 10 18 C10.5247211 22.22749519 10.56212182 26.36965567 10.5 30.625 C10.51546875 31.69234375 10.5309375 32.7596875 10.546875 33.859375 C10.50539321 42.30091847 8.70922299 48.33888785 3.6875 55.125 C1 57 1 57 -2.5625 57.125 C-6.52925036 55.82679079 -7.78022915 54.46284252 -10 51 C-9.67 50.34 -9.34 49.68 -9 49 C-8.2265625 49.5259375 -8.2265625 49.5259375 -7.4375 50.0625 C-3.97234618 51.39525147 -1.56957573 50.8437179 2 50 C4.15859562 48.37980698 4.9039627 47.51973125 5.3984375 44.84375 C5.39070313 44.0703125 5.38296875 43.296875 5.375 42.5 C5.38273437 41.7265625 5.39046875 40.953125 5.3984375 40.15625 C4.90389601 37.47990783 4.15620263 36.62337658 2 35 C-2.89628736 33.70375036 -2.89628736 33.70375036 -7.4375 35.4375 C-7.953125 35.953125 -8.46875 36.46875 -9 37 C-7.68 37.66 -6.36 38.32 -5 39 C-5.33 40.32 -5.66 41.64 -6 43 C-8.49064888 43.68707555 -10.37886292 44 -13 44 C-15.68482834 38.14827938 -15.36794262 32.58752895 -15.375 26.25 C-15.39949219 25.10789062 -15.42398438 23.96578125 -15.44921875 22.7890625 C-15.47822282 14.37788081 -14.05534876 8.31963101 -9.1875 1.4375 C-5.84256852 -0.76059783 -3.91285864 -0.74209388 0 0 Z " fill="#F4F7F7" transform="translate(210,70)"/>
<path d="M0 0 C0 0.66 0 1.32 0 2 C-0.97582031 1.94199219 -1.95164062 1.88398438 -2.95703125 1.82421875 C-4.22933594 1.77910156 -5.50164063 1.73398437 -6.8125 1.6875 C-8.07707031 1.62949219 -9.34164062 1.57148438 -10.64453125 1.51171875 C-14.17957861 1.62946846 -14.17957861 1.62946846 -15.94921875 4.51953125 C-16.29597656 5.33808594 -16.64273438 6.15664063 -17 7 C-14.525 7.495 -14.525 7.495 -12 8 C-12 8.33 -12 8.66 -12 9 C-12.59167969 9.08636719 -13.18335937 9.17273438 -13.79296875 9.26171875 C-19.33249899 10.24672494 -22.55197511 11.27128015 -26 16 C-28.50748377 21.01496754 -30.27329552 25.33164845 -30 31 C-29.29875 30.01 -28.5975 29.02 -27.875 28 C-25.7745305 25.48300681 -25.31479153 25.05781885 -21.9375 24.4375 C-18.7246186 25.05273261 -17.4684929 25.92965112 -15 28 C-13.34795544 28.70211894 -11.68076231 29.36971413 -10 30 C-8.65949948 30.65213539 -7.32338632 31.31379969 -6 32 C-5.67 31.67 -5.34 31.34 -5 31 C-1.52743085 30.69132719 0.3872288 30.61298661 3.375 32.5 C3.91125 32.995 4.4475 33.49 5 34 C2.03 34 -0.94 34 -4 34 C-3.89592083 37.40080577 -3.89592083 37.40080577 -3 41 C-0.85688329 42.9529689 -0.85688329 42.9529689 2 44 C2.94875 44.4125 3.8975 44.825 4.875 45.25 C8.76821958 46.1843727 11.17224982 46.22776893 15 45 C17.59250075 40.73491813 18.73839236 36.95777726 18 32 C15.17575396 26.46918484 10.72357581 22.87516657 6 19 C6.66 18.67 7.32 18.34 8 18 C9.17219543 18.78345715 10.33763668 19.57702836 11.5 20.375 C12.1496875 20.81585938 12.799375 21.25671875 13.46875 21.7109375 C13.9740625 22.13632812 14.479375 22.56171875 15 23 C15 23.66 15 24.32 15 25 C15.66 25 16.32 25 17 25 C20.96815503 30.30059924 20.91267931 35.62846517 20 42 C18.68409263 44.99172104 17.6510162 45.86766089 15 48 C11.6875 48.875 11.6875 48.875 9 49 C8.71125 49.94875 8.4225 50.8975 8.125 51.875 C7 55 7 55 5 57 C1.5 57.25 1.5 57.25 -2 57 C-2.66 56.34 -3.32 55.68 -4 55 C-5.90178785 54.39938767 -5.90178785 54.39938767 -8 54 C-10.94858104 53.3929392 -11.79947406 53.20052594 -14 51 C-14.78375 51.04125 -15.5675 51.0825 -16.375 51.125 C-19.90659916 50.95682861 -20.63117864 49.5168727 -23 47 C-23.845625 46.690625 -24.69125 46.38125 -25.5625 46.0625 C-28.82565696 44.64009825 -29.50666401 43.2000057 -31 40 C-33.90294406 31.90231393 -33.97994872 26.51312344 -30.375 18.8125 C-27.81760206 14.03022631 -25.60830351 10.86738885 -21 8 C-20.01 8 -19.02 8 -18 8 C-17.9175 6.88625 -17.835 5.7725 -17.75 4.625 C-17 1 -17 1 -15.4375 -0.4375 C-10.25229826 -1.63408502 -5.12653105 -1.28163276 0 0 Z " fill="#313131" transform="translate(69,284)"/>
<path d="M0 0 C3.0625 0.25 3.0625 0.25 6.0625 2.25 C7.238125 2.53875 8.41375 2.8275 9.625 3.125 C10.759375 3.49625 11.89375 3.8675 13.0625 4.25 C13.3925 4.930625 13.7225 5.61125 14.0625 6.3125 C14.3925 6.951875 14.7225 7.59125 15.0625 8.25 C18.58763528 8.99176007 18.58763528 8.99176007 22.0625 9.25 C24.10948414 11.29698414 23.76295693 15.55411241 24.0625 18.25 C24.3925 16.27 24.7225 14.29 25.0625 12.25 C29.9375 14 29.9375 14 31.0625 16.25 C31.46489637 21.48115287 30.83276177 24.77496176 28.0625 29.25 C24.71006489 30.92621756 21.51953169 30.69144269 17.9609375 29.61328125 C15.25996039 28.60655342 12.64110318 27.53930159 10.0625 26.25 C10.0625 25.59 10.0625 24.93 10.0625 24.25 C9.0725 24.91 8.0825 25.57 7.0625 26.25 C4.87109375 26.296875 4.87109375 26.296875 2.5 26 C1.71496094 25.91234375 0.92992187 25.8246875 0.12109375 25.734375 C-1.9375 25.25 -1.9375 25.25 -3.9375 23.25 C-0.3075 23.58 3.3225 23.91 7.0625 24.25 C6.2312047 19.92726444 5.70800993 17.78075261 2.25 14.9375 C-3.20268933 12.05078212 -6.67426187 11.00438282 -12.9375 11.25 C-12.6075 10.59 -12.2775 9.93 -11.9375 9.25 C-9.9575 9.25 -7.9775 9.25 -5.9375 9.25 C-5.751875 7.579375 -5.751875 7.579375 -5.5625 5.875 C-4.81157661 1.51964433 -4.47735819 0.38105176 0 0 Z " fill="#3C3C3C" transform="translate(440.9375,98.75)"/>
<path d="M0 0 C4.38299293 0.76528448 5.74686659 1.69501102 8.9375 4.6875 C16.30053907 15.72374817 18.44749887 28.93149165 16.4375 41.91796875 C15.12084634 48.41894618 13.55414381 54.70466348 8.9375 59.6875 C6.12548754 61.42880631 4.97666156 61.6875 1.5625 61.6875 C-3.09025604 60.40398109 -5.26972594 58.56186864 -8.0625 54.6875 C-12.84748268 46.15377293 -13.263274 37.98022262 -13.3125 28.375 C-13.333125 27.38048828 -13.35375 26.38597656 -13.375 25.36132812 C-13.42153088 16.50301205 -12.02093115 8.59452834 -5.8046875 1.9453125 C-3.76221189 0.47070006 -2.50335525 0.14169935 0 0 Z M-8.0625 7.6875 C-11.46398 14.74454646 -11.48351855 21.12677523 -11.375 28.875 C-11.37822266 30.03708984 -11.38144531 31.19917969 -11.38476562 32.39648438 C-11.35128744 37.68908077 -11.30427304 41.81740287 -9.0625 46.6875 C-6.44136292 46.6875 -4.55314888 46.37457555 -2.0625 45.6875 C-1.7325 44.3675 -1.4025 43.0475 -1.0625 41.6875 C-2.3825 40.6975 -3.7025 39.7075 -5.0625 38.6875 C-2.28828757 36.80103555 -0.93010546 36.69446813 2.5 36.875 C5.97707957 37.69685517 6.86019013 37.96295709 8.9375 40.6875 C9.61574408 43.75655448 9.52075132 46.60460015 8.9375 49.6875 C6.875 52.3125 6.875 52.3125 3.9375 53.6875 C0.2970767 53.49920224 -2.61482893 52.83672369 -6.0625 51.6875 C-4.6113197 55.07358737 -3.06123134 57.49923659 -0.0625 59.6875 C4.06219869 59.76115533 6.11917406 59.43763211 9.1875 56.625 C13.81442149 48.85838178 14.43360491 42.26696338 14.375 33.375 C14.39498047 32.31087891 14.41496094 31.24675781 14.43554688 30.15039062 C14.42967608 20.52815832 12.42486787 11.05415446 5.578125 3.87890625 C3.7772165 2.40058275 3.7772165 2.40058275 0.375 1.9375 C-4.01617798 2.8955752 -5.37366679 4.10238905 -8.0625 7.6875 Z " fill="#242524" transform="translate(206.0625,67.3125)"/>
<path d="M0 0 C3.53543949 1.76336576 5.69033911 3.51361444 8.171875 6.58203125 C8.79484056 9.43770538 8.42272888 11.62195551 8.171875 14.58203125 C5.66461056 15.55258523 3.86625295 15.85272096 1.328125 14.86328125 C0.6371875 14.52296875 -0.05375 14.18265625 -0.765625 13.83203125 C-9.54403263 9.62540663 -19.04603032 8.11383348 -28.71875 8.671875 C-30.828125 8.58203125 -30.828125 8.58203125 -32.828125 6.58203125 C-33.09804406 3.8936374 -32.91549857 1.29061189 -32.828125 -1.41796875 C-23.74694875 -7.2608961 -9.38895419 -3.22873425 0 0 Z " fill="#D4D4D4" transform="translate(351.828125,353.41796875)"/>
<path d="M0 0 C0 0.66 0 1.32 0 2 C-0.97582031 1.94199219 -1.95164062 1.88398438 -2.95703125 1.82421875 C-4.22933594 1.77910156 -5.50164063 1.73398437 -6.8125 1.6875 C-8.07707031 1.62949219 -9.34164062 1.57148438 -10.64453125 1.51171875 C-14.17957861 1.62946846 -14.17957861 1.62946846 -15.94921875 4.51953125 C-16.29597656 5.33808594 -16.64273438 6.15664063 -17 7 C-14.525 7.495 -14.525 7.495 -12 8 C-12 8.33 -12 8.66 -12 9 C-12.59167969 9.08636719 -13.18335937 9.17273438 -13.79296875 9.26171875 C-19.33249899 10.24672494 -22.55197511 11.27128015 -26 16 C-28.50748377 21.01496754 -30.27329552 25.33164845 -30 31 C-29.29875 30.01 -28.5975 29.02 -27.875 28 C-25.7745305 25.48300681 -25.31479153 25.05781885 -21.9375 24.4375 C-18.7246186 25.05273261 -17.4684929 25.92965112 -15 28 C-13.34795544 28.70211894 -11.68076231 29.36971413 -10 30 C-8.65949948 30.65213539 -7.32338632 31.31379969 -6 32 C-5.67 31.67 -5.34 31.34 -5 31 C-1.52743085 30.69132719 0.3872288 30.61298661 3.375 32.5 C3.91125 32.995 4.4475 33.49 5 34 C2.03 34 -0.94 34 -4 34 C-4.66 35.32 -5.32 36.64 -6 38 C-6 36.68 -6 35.36 -6 34 C-7.485 34.495 -7.485 34.495 -9 35 C-9.66 34.01 -10.32 33.02 -11 32 C-13.95720628 31.33319632 -13.95720628 31.33319632 -17 32 C-20.12637446 35.12637446 -20.16954678 38.0934939 -20.1875 42.3125 C-20.13958275 43.87551517 -20.08187055 45.43839515 -20 47 C-17.69 47.66 -15.38 48.32 -13 49 C-13.33 49.66 -13.66 50.32 -14 51 C-16.25 51.25 -16.25 51.25 -19 51 C-20.37562854 49.71034824 -21.70766393 48.37310707 -23 47 C-23.845625 46.690625 -24.69125 46.38125 -25.5625 46.0625 C-28.82565696 44.64009825 -29.50666401 43.2000057 -31 40 C-33.90294406 31.90231393 -33.97994872 26.51312344 -30.375 18.8125 C-27.81760206 14.03022631 -25.60830351 10.86738885 -21 8 C-20.01 8 -19.02 8 -18 8 C-17.9175 6.88625 -17.835 5.7725 -17.75 4.625 C-17 1 -17 1 -15.4375 -0.4375 C-10.25229826 -1.63408502 -5.12653105 -1.28163276 0 0 Z " fill="#3E3E3E" transform="translate(69,284)"/>
<path d="M0 0 C3.05550525 3.57720725 5.2045759 7.0977461 7.2421875 11.33203125 C7.83975654 12.55538114 8.43741566 13.77868704 9.03515625 15.00195312 C9.95465264 16.90278339 10.87135495 18.80491185 11.78564453 20.70825195 C18.49049081 35.37311669 18.49049081 35.37311669 30.81640625 44.90625 C42.31502166 48.85669456 54.80124385 51.1699005 66.9375 51.0625 C67.62134766 51.05798828 68.30519531 51.05347656 69.00976562 51.04882812 C70.67321604 51.0371956 72.3366205 51.01926694 74 51 C74.495 50.01 74.495 50.01 75 49 C73.8140625 49.03480469 72.628125 49.06960938 71.40625 49.10546875 C55.50477705 49.43265275 37.8802589 49.11315805 25.484375 37.6796875 C20 31.71590909 20 31.71590909 20 29 C20.66 29 21.32 29 22 29 C26 33.47058824 26 33.47058824 26 36 C26.58136719 36.27972656 27.16273438 36.55945313 27.76171875 36.84765625 C30 38 30 38 31.83203125 39.18359375 C44.25400583 47.04839422 60.72989565 46.85154629 75 48 C74.04744731 38.44162645 71.92650447 30.74735885 64.8515625 23.9296875 C58.73868782 18.94341771 52.91741412 15.96553831 45 15 C48 13 48 13 50.19921875 13.25 C59.84155642 16.1563247 67.28882465 21.62842905 73 30 C76.44906685 36.78621708 77.9063075 43.40781752 77 51 C76.505 51.99 76.505 51.99 76 53 C62.98129166 53.3308547 50.63710266 53.53410498 38 50 C36.99710938 49.73316406 35.99421875 49.46632813 34.9609375 49.19140625 C25.32033714 46.20361688 19.05466325 40.4865286 14.234375 31.6640625 C13.05304333 29.32765097 11.89182034 26.98097319 10.75 24.625 C10.16476563 23.45710938 9.57953125 22.28921875 8.9765625 21.0859375 C7.29982402 17.73246053 5.64854895 14.36740067 4 11 C3.02821982 9.04839306 2.05449814 7.09775068 1.078125 5.1484375 C0.47339355 3.9406665 0.47339355 3.9406665 -0.14355469 2.70849609 C-0.42618164 2.14469238 -0.70880859 1.58088867 -1 1 C-0.67 0.67 -0.34 0.34 0 0 Z " fill="#4C4648" transform="translate(155,412)"/>
<path d="M0 0 C5.98578633 0.54088431 9.38218804 4.99487119 13.2421875 9.29296875 C17.32065406 14.49931553 21.71793212 20.2654527 21.7421875 27.10546875 C21.4946875 28.68328125 21.4946875 28.68328125 21.2421875 30.29296875 C19.5921875 30.62296875 17.9421875 30.95296875 16.2421875 31.29296875 C12.5665889 26.66774741 9.02885391 22.01683647 5.7421875 17.10546875 C2.70594065 12.6922392 -0.53341032 9.56903575 -4.7578125 6.29296875 C-3.69883216 0.39293543 -3.69883216 0.39293543 0 0 Z " fill="#D1D1D1" transform="translate(184.7578125,374.70703125)"/>
<path d="M0 0 C4.90084615 1.37223692 7.72132557 4.73918921 10.140625 8.984375 C15.79863035 21.53141615 16.72850688 36.35249916 12.953125 49.546875 C11.13022099 53.95111754 9.14496701 57.48049004 5.578125 60.671875 C1.81317099 61.92685967 -0.25054203 61.74571699 -4.046875 60.546875 C-10.21334262 56.0157966 -13.72457009 47.88614292 -15.046875 40.546875 C-15.4252009 36.4602415 -15.52750867 32.39972588 -15.546875 28.296875 C-15.55315918 27.27924072 -15.55944336 26.26160645 -15.56591797 25.21313477 C-15.41845384 16.43329229 -13.96305046 8.38506178 -7.78515625 1.80859375 C-5.18339845 -0.07987314 -3.15981772 -0.3135697 0 0 Z M-8.99243164 6.73217773 C-12.98874537 13.60983458 -13.49262338 19.69733984 -13.359375 27.484375 C-13.36259766 28.42216797 -13.36582031 29.35996094 -13.36914062 30.32617188 C-13.28317915 41.57149625 -10.97703684 49.18537586 -4.109375 58.046875 C-2.0578084 59.75282447 -2.0578084 59.75282447 0.890625 60.171875 C4.3137856 59.4732708 5.75272281 58.44816413 7.78515625 55.61328125 C13.8428476 44.89582733 14.95022908 32.25345908 12.03515625 20.37109375 C10.1739455 13.86516865 7.87113693 6.43462007 1.953125 2.546875 C-3.28949482 1.35118978 -5.84737532 2.29878509 -8.99243164 6.73217773 Z " fill="#2B2C2C" transform="translate(263.046875,67.453125)"/>
<path d="M0 0 C3.87725186 1.29241729 5.57146618 2.7143366 8 6 C8.625 9.5 8.625 9.5 8 13 C5.46458828 16.53421028 3.69538558 17.77241926 -0.4375 19.125 C-5.29969225 18.95439676 -6.62081934 17.37918066 -10 14 C-9.67 12.68 -9.34 11.36 -9 10 C-7.35 10 -5.7 10 -4 10 C-5.07401108 7.08482708 -5.77810176 5.22189824 -8 3 C-5.17128122 0.92005972 -3.55490809 0 0 0 Z " fill="#0B0C0B" transform="translate(264,103)"/>
<path d="M0 0 C2.4375 1.5 2.4375 1.5 4 4 C4.822205 7.82504066 5.05962777 11.34128939 2.89453125 14.73046875 C0.11286573 17.3928135 -1.81766613 17.99685631 -5.625 18.0625 C-9.22331338 16.92969764 -10.78003804 16.01914826 -13 13 C-13 12.01 -13 11.02 -13 10 C-11.35 9.34 -9.7 8.68 -8 8 C-8.33 6.68 -8.66 5.36 -9 4 C-9.99 4 -10.98 4 -12 4 C-11 1 -11 1 -9.375 -0.25 C-5.91351088 -1.34310183 -3.49543762 -0.87385941 0 0 Z " fill="#0A0A0A" transform="translate(212,104)"/>
<path d="M0 0 C6.55808081 -0.37121212 6.55808081 -0.37121212 8.5625 1.3125 C9.036875 1.869375 9.51125 2.42625 10 3 C11.010625 3.495 12.02125 3.99 13.0625 4.5 C16 6 16 6 18 9 C18.36141955 11.32914823 18.69699525 13.66253478 19 16 C19.33 16.33 19.66 16.66 20 17 C21.02505656 24.76114253 18.11296701 30.4994603 14 37 C12.06535764 39.23156589 10.54321895 40.41755265 8 42 C7.01 42 6.02 42 5 42 C5.103125 42.928125 5.20625 43.85625 5.3125 44.8125 C5 48 5 48 3 49.875 C-1.91640328 51.71865123 -6.96679758 51.67773414 -12 50 C-12 49.34 -12 48.68 -12 48 C-7.05 48 -2.1 48 3 48 C3.33 46.35 3.66 44.7 4 43 C2.35 42.67 0.7 42.34 -1 42 C-1 41.67 -1 41.34 -1 41 C-0.40832031 40.91363281 0.18335938 40.82726562 0.79296875 40.73828125 C6.33249899 39.75327506 9.55197511 38.72871985 13 34 C15.50748377 28.98503246 17.27329552 24.66835155 17 19 C15.9790625 20.485 15.9790625 20.485 14.9375 22 C12.67398697 24.70595608 12.19839967 24.96457149 8.5 25.625 C4.56704829 24.9226872 2.83688385 23.75091768 0 21 C0.75925781 21.10699219 1.51851563 21.21398437 2.30078125 21.32421875 C3.29464844 21.44410156 4.28851563 21.56398438 5.3125 21.6875 C6.79169922 21.87892578 6.79169922 21.87892578 8.30078125 22.07421875 C11.00325824 22.25310617 11.00325824 22.25310617 12.79296875 20.70703125 C15.41164009 17.00360285 15.31334884 13.38688375 15 9 C13.45737187 6.89641619 12.31891683 6.15945841 10 5 C10 7.31 10 9.62 10 12 C9.34 11.67 8.68 11.34 8 11 C7.40644386 8.35139573 7.25790731 5.70802678 7 3 C4.69 2.34 2.38 1.68 0 1 C0 0.67 0 0.34 0 0 Z " fill="#3F3F3F" transform="translate(456,106)"/>
<path d="M0 0 C3.43927579 1.2419607 6.25207819 2.55740284 9 5 C9 5.66 9 6.32 9 7 C9.66 7 10.32 7 11 7 C14.96815503 12.30059924 14.91267931 17.62846517 14 24 C12.68409263 26.99172104 11.6510162 27.86766089 9 30 C5.75 30.75 5.75 30.75 3 31 C2.67 31.66 2.34 32.32 2 33 C0.68133728 34.678298 -0.65080468 36.34614767 -2 38 C-7.875 37.125 -7.875 37.125 -9 36 C-8.91062197 34.47480724 -8.75462854 32.95318071 -8.5625 31.4375 C-8.40974609 30.19806641 -8.40974609 30.19806641 -8.25390625 28.93359375 C-8.17011719 28.29550781 -8.08632812 27.65742188 -8 27 C-3.86807661 26.92751012 -0.26727333 26.95180317 3.8125 27.6875 C6.90031084 28.31619552 6.90031084 28.31619552 8.8125 26.875 C11.4977084 22.63519726 12.61691286 19.03812171 12 14 C9.47634449 9.05784128 5.81886216 5.89770905 1.609375 2.41796875 C1.07828125 1.95003906 0.5471875 1.48210937 0 1 C0 0.67 0 0.34 0 0 Z " fill="#474747" transform="translate(75,302)"/>
<path d="M0 0 C6.875 0.875 6.875 0.875 8 2 C8.71495414 7.33151516 8.73046521 11.67170333 5.5 16.125 C4.675 17.07375 3.85 18.0225 3 19 C-1.55371901 18.52066116 -1.55371901 18.52066116 -3.5 16.25 C-4.21966594 13.01150326 -2.69099569 11.81832614 -1 9 C-0.44684031 6.01293769 -0.19143818 3.0300043 0 0 Z " fill="#F1F1F1" transform="translate(456,107)"/>
<path d="M0 0 C0.9075 0.12375 1.815 0.2475 2.75 0.375 C3.41 1.695 4.07 3.015 4.75 4.375 C4.26917969 4.92671875 3.78835937 5.4784375 3.29296875 6.046875 C1.51045839 8.73643493 1.27248591 10.43321418 1.0625 13.625 C0.99675781 14.51703125 0.93101563 15.4090625 0.86328125 16.328125 C0.82589844 17.00359375 0.78851563 17.6790625 0.75 18.375 C-2.125 18.5 -2.125 18.5 -5.25 18.375 C-7.71996424 15.90503576 -7.57331778 15.03602667 -7.625 11.625 C-7.49139566 5.86331303 -6.47389612 0.74698801 0 0 Z " fill="#F2F2F2" transform="translate(55.25,314.625)"/>
<path d="M0 0 C0 4.22277104 -0.9088014 5.63314045 -3.04296875 9.1171875 C-4.53130465 12.04526058 -4.73438626 14.74623175 -5 18 C-9.875 16.25 -9.875 16.25 -11 14 C-11.42038217 5.31210191 -11.42038217 5.31210191 -9 2 C-5.5647952 -0.29013653 -4.014669 -0.17842973 0 0 Z " fill="#EEEEEE" transform="translate(51,311)"/>
<path d="M0 0 C4.875 1.75 4.875 1.75 6 4 C6.40239637 9.23115287 5.77026177 12.52496176 3 17 C0.29120665 18.35439668 -2.00933268 18.06501451 -5 18 C-5 13.77722896 -4.0911986 12.36685955 -1.95703125 8.8828125 C-0.46869535 5.95473942 -0.26561374 3.25376825 0 0 Z " fill="#F0F0F0" transform="translate(466,111)"/>
<path d="M0 0 C1.17755859 0.28617187 1.17755859 0.28617187 2.37890625 0.578125 C3.27609375 0.77792969 4.17328125 0.97773438 5.09765625 1.18359375 C6.03609375 1.39628906 6.97453125 1.60898437 7.94140625 1.828125 C18.21799633 3.95900618 28.48452524 4.41247492 38.94140625 4.828125 C38.61140625 5.818125 38.28140625 6.808125 37.94140625 7.828125 C23.24400318 8.64088462 8.99900442 6.06832445 -5.05859375 1.828125 C-2.05859375 -0.171875 -2.05859375 -0.171875 0 0 Z " fill="#BDBCBC" transform="translate(191.05859375,456.171875)"/>
<path d="M0 0 C4.97172963 0.86807978 7.18292164 2.25985388 10.12890625 6.3359375 C12.33428802 9.85532723 13.44056866 12.53718355 12.9375 16.6875 C10.50718833 14.25718833 9.46292424 11.75269015 8.03515625 8.66015625 C6.8683716 6.56326569 5.80808724 5.18949862 3.9375 3.6875 C0.15586413 3.20620089 -2.09256106 3.04087404 -5.3125 5.1875 C-10.6192894 12.76862771 -11.16086832 21.58421496 -11.625 30.5625 C-11.66818359 31.34625 -11.71136719 32.13 -11.75585938 32.9375 C-11.86103351 34.85400649 -11.96217925 36.77073333 -12.0625 38.6875 C-12.3925 38.6875 -12.7225 38.6875 -13.0625 38.6875 C-13.15075361 35.20849751 -13.20330635 31.72978883 -13.25 28.25 C-13.27513672 27.27611328 -13.30027344 26.30222656 -13.32617188 25.29882812 C-13.4149655 16.44906346 -12.01460007 8.5877563 -5.8046875 1.9453125 C-3.76221189 0.47070006 -2.50335525 0.14169935 0 0 Z " fill="#2C2C2C" transform="translate(206.0625,67.3125)"/>
<path d="M0 0 C0.66 0 1.32 0 2 0 C6.39705882 8.41176471 6.39705882 8.41176471 5.0625 13.75 C4.711875 14.8225 4.36125 15.895 4 17 C-0.75 16.25 -0.75 16.25 -3 14 C-3.54863582 8.40391464 -2.40512796 4.91046959 0 0 Z " fill="#E7E7E7" transform="translate(60,320)"/>
<path d="M0 0 C0.66 0.66 1.32 1.32 2 2 C1.01 3.2684375 1.01 3.2684375 0 4.5625 C-2.32414711 8.55712785 -2.64935383 10.45452321 -2 15 C0.77098536 20.54197072 5.28750702 24.13392566 10 28 C9.34 28.33 8.68 28.66 8 29 C7.29423828 28.44119141 7.29423828 28.44119141 6.57421875 27.87109375 C5.95160156 27.39800781 5.32898438 26.92492187 4.6875 26.4375 C4.07261719 25.96183594 3.45773437 25.48617187 2.82421875 24.99609375 C2.22222656 24.66738281 1.62023437 24.33867187 1 24 C0.01 24.33 -0.98 24.66 -2 25 C-2.41890218 27.78938212 -2.41890218 27.78938212 -2 31 C0.20802268 33.70817728 0.20802268 33.70817728 3 36 C4.33333333 37.33333333 5.66666667 38.66666667 7 40 C3.47601214 40 2.98495633 39.44884893 0.4375 37.1875 C-0.16191406 36.66542969 -0.76132812 36.14335937 -1.37890625 35.60546875 C-3.85874788 33.14952921 -4.94827868 31.49652469 -5.3125 28 C-5 25 -5 25 -3.5 23.125 C-3.005 22.75375 -2.51 22.3825 -2 22 C-2.309375 21.34 -2.61875 20.68 -2.9375 20 C-4.54988947 15.44737092 -5.84199721 11.38565876 -4.203125 6.7421875 C-1.71808511 1.71808511 -1.71808511 1.71808511 0 0 Z " fill="#4D4D4D" transform="translate(427,109)"/>
<path d="M0 0 C0.78375 0.04125 1.5675 0.0825 2.375 0.125 C2.375 1.445 2.375 2.765 2.375 4.125 C1.570625 4.41375 0.76625 4.7025 -0.0625 5 C-2.7576468 5.85762568 -2.7576468 5.85762568 -3.625 8.125 C-4.40225784 14.60214865 -2.29447745 18.0794685 1.375 23.125 C0.385 23.455 -0.605 23.785 -1.625 24.125 C-2.60669476 23.00220538 -3.58527298 21.87668527 -4.5625 20.75 C-5.10777344 20.12351563 -5.65304687 19.49703125 -6.21484375 18.8515625 C-9.08730912 15.33458274 -8.99858973 12.60807681 -8.625 8.125 C-4.13746537 0.19702216 -4.13746537 0.19702216 0 0 Z " fill="#E6E6E6" transform="translate(432.625,108.875)"/>
<path d="M0 0 C2.375 0.3125 2.375 0.3125 5 1 C7.25668692 4.38503038 7.18818083 5.12555895 6.75 9 C6.61851562 10.299375 6.61851562 10.299375 6.484375 11.625 C6 14 6 14 4 17 C3.34 17 2.68 17 2 17 C-2.39705882 8.58823529 -2.39705882 8.58823529 -1.0625 3.25 C-0.711875 2.1775 -0.36125 1.105 0 0 Z " fill="#EBEBEB" transform="translate(448,103)"/>
<path d="M0 0 C3.27168011 2.41071166 5.52711077 4.18165684 7 8 C7.15805216 12.20719786 6.34705242 16.07452687 4.875 20 C2.20111356 22.85214554 -0.20318895 22.78508617 -4 23 C-4 21.68 -4 20.36 -4 19 C-3.195625 18.71125 -2.39125 18.4225 -1.5625 18.125 C1.1326468 17.26737432 1.1326468 17.26737432 2 15 C2.5964336 8.9163773 1.22889075 5.94423897 -2 1 C-1.34 0.67 -0.68 0.34 0 0 Z " fill="#E2E2E2" transform="translate(81,308)"/>
<path d="M0 0 C0.33 0 0.66 0 1 0 C1.144375 0.86625 1.28875 1.7325 1.4375 2.625 C4.71488676 9.7041554 13.22094349 12.7953551 20 16 C19.67 16.99 19.34 17.98 19 19 C10.8162493 17.77462556 4.03987736 12.40410079 -2 7 C-1.34 4.69 -0.68 2.38 0 0 Z " fill="#E3E3E3" transform="translate(427,135)"/>
<path d="M0 0 C0.66 0 1.32 0 2 0 C6 4.47058824 6 4.47058824 6 7 C6.58136719 7.27972656 7.16273438 7.55945313 7.76171875 7.84765625 C10 9 10 9 11.83203125 10.18359375 C21.32516371 16.19403856 32.98195424 17.24818041 44 18 C44 18.33 44 18.66 44 19 C31.5607922 21.00409459 18.43951768 18.19647225 8 11 C4.99868194 8.23170353 2.29927434 5.38128579 0 2 C0 1.34 0 0.68 0 0 Z " fill="#555153" transform="translate(175,441)"/>
<path d="M0 0 C3.1385057 0.74438917 6.02009661 1.75837359 9 3 C8.25 8.75 8.25 8.75 6 11 C0.43181818 10.43181818 0.43181818 10.43181818 -1 9 C-0.91062197 7.47480724 -0.75462854 5.95318071 -0.5625 4.4375 C-0.46066406 3.61121094 -0.35882813 2.78492188 -0.25390625 1.93359375 C-0.17011719 1.29550781 -0.08632812 0.65742188 0 0 Z " fill="#E9E9E9" transform="translate(67,329)"/>
<path d="M0 0 C0.66 0 1.32 0 2 0 C0.9063129 4.73931075 0.1052043 8.14916368 -4 11 C-6.8125 11.75 -6.8125 11.75 -10 11 C-12.63785918 8.55852068 -14.83809932 5.86547783 -17 3 C-16.67 2.34 -16.34 1.68 -16 1 C-15.319375 1.680625 -14.63875 2.36125 -13.9375 3.0625 C-11.09084073 5.32691563 -11.09084073 5.32691563 -7.4375 5 C-3.75672428 3.92922888 -2.46636319 2.83175033 0 0 Z " fill="#E4E6E6" transform="translate(271,116)"/>
<path d="M0 0 C2.9375 0.1875 2.9375 0.1875 3.9375 1.1875 C4.17478814 7.71292373 4.17478814 7.71292373 2.9375 10.1875 C-0.40623475 9.63021087 -3.09562999 8.83576111 -6.0625 7.1875 C-4.9757321 0.30463666 -4.9757321 0.30463666 0 0 Z " fill="#E9E9E9" transform="translate(442.0625,100.8125)"/>
<path d="M0 0 C0.99 0.33 1.98 0.66 3 1 C-0.625 7.75 -0.625 7.75 -4 10 C-7.4375 9.9375 -7.4375 9.9375 -11 9 C-13.4375 6.4375 -13.4375 6.4375 -15 4 C-14.67 3.34 -14.34 2.68 -14 2 C-13.484375 2.350625 -12.96875 2.70125 -12.4375 3.0625 C-8.97234618 4.39525147 -6.56957573 3.8437179 -3 3 C-1.07716915 1.58408173 -1.07716915 1.58408173 0 0 Z " fill="#E5E8E8" transform="translate(215,117)"/>
<path d="M0 0 C0.9075 0.165 1.815 0.33 2.75 0.5 C6.11087503 1.10137146 6.11087503 1.10137146 10 1 C15.11604268 3.39019887 19.21910898 6.86465045 23 11 C22.34 11 21.68 11 21 11 C21.33 12.65 21.66 14.3 22 16 C21.34 16.33 20.68 16.66 20 17 C19.855625 16.13375 19.71125 15.2675 19.5625 14.375 C16.13535375 6.97236411 7.23062416 3.9059246 0 1 C0 0.67 0 0.34 0 0 Z " fill="#E4E4E4" transform="translate(64,288)"/>
<path d="M0 0 C0.53625 0.38671875 1.0725 0.7734375 1.625 1.171875 C12.43006327 8.3515552 25.36059843 10.1806922 38 12 C32.6475657 15.41426265 26.85100865 13.23648767 21 12 C13.16338868 10.14256391 5.69370958 8.02053883 0 2 C0 1.34 0 0.68 0 0 Z " fill="#524D4F" transform="translate(176,451)"/>
<path d="M0 0 C3.97101773 1.55257836 7.85416135 3.26851615 11.75 5 C17.108121 7.34391335 22.23173602 9.00547173 28 10 C25 12 25 12 21.76171875 11.76953125 C17.97220392 10.99431378 14.45981049 9.97221242 10.8125 8.6875 C9.02779297 8.07455078 9.02779297 8.07455078 7.20703125 7.44921875 C4.00025265 6.00011417 2.19261201 4.72580302 0 2 C0 1.34 0 0.68 0 0 Z " fill="#C2C1C1" transform="translate(308,405)"/>
<path d="M0 0 C0.33 0 0.66 0 1 0 C1.01981934 0.59014893 1.03963867 1.18029785 1.06005859 1.78833008 C1.15534659 4.46350096 1.26500939 7.13789498 1.375 9.8125 C1.42140625 11.2056543 1.42140625 11.2056543 1.46875 12.62695312 C1.50742188 13.51962891 1.54609375 14.41230469 1.5859375 15.33203125 C1.6173584 16.15421143 1.6487793 16.9763916 1.68115234 17.82348633 C2.14971431 21.02197783 3.76160978 22.76160978 6 25 C6.33926947 27.33247761 6.67240066 29.66585471 7 32 C7.66 32.99 8.32 33.98 9 35 C7.16796875 34.7890625 7.16796875 34.7890625 5 34 C3.55078125 31.9609375 3.55078125 31.9609375 2.3125 29.375 C1.68794922 28.11816406 1.68794922 28.11816406 1.05078125 26.8359375 C-1.26773503 20.57852925 -1.04900665 14.58839949 -0.5625 8.0625 C-0.51029297 7.28326172 -0.45808594 6.50402344 -0.40429688 5.70117188 C-0.27601936 3.80033228 -0.13892679 1.90009096 0 0 Z " fill="#565656" transform="translate(194,89)"/>
<path d="M0 0 C2 2 2 2 2.23046875 4.3125 C2.20919922 5.6428125 2.20919922 5.6428125 2.1875 7 C2.18105469 7.886875 2.17460937 8.77375 2.16796875 9.6875 C2 12 2 12 1 14 C-5.93 14 -12.86 14 -20 14 C-20 13.67 -20 13.34 -20 13 C-13.73 12.67 -7.46 12.34 -1 12 C-0.67 11.34 -0.34 10.68 0 10 C-5.28 10 -10.56 10 -16 10 C-16 9.67 -16 9.34 -16 9 C-10.72 9 -5.44 9 0 9 C0 6.03 0 3.06 0 0 Z " fill="#3C3639" transform="translate(230,451)"/>
<path d="M0 0 C2.96791031 3.58545686 4.85753776 7.52889966 6.875 11.6875 C9.75982431 17.55295458 12.72857056 23.33791058 16 29 C15.01 29.33 14.02 29.66 13 30 C11.13535182 26.53811739 9.28446405 23.06926256 7.44580078 19.59350586 C6.51137333 17.83391673 5.56629313 16.07999818 4.62109375 14.32617188 C4.03457031 13.21435547 3.44804687 12.10253906 2.84375 10.95703125 C2.29912109 9.93585205 1.75449219 8.91467285 1.19335938 7.86254883 C-0.01378199 4.9669407 -0.25862639 3.09605633 0 0 Z " fill="#BAB9BA" transform="translate(153,403)"/>
<path d="M0 0 C2.475 0.99 2.475 0.99 5 2 C3.3833652 8.03280791 1.83290538 11.950809 -3 16 C-3.66 15.34 -4.32 14.68 -5 14 C-4.360625 12.989375 -3.72125 11.97875 -3.0625 10.9375 C-0.93151044 7.24780076 -0.34460387 4.22139745 0 0 Z " fill="#E0E0E0" transform="translate(466,111)"/>
<path d="M0 0 C1.06347656 0.19980469 2.12695312 0.39960938 3.22265625 0.60546875 C5.8031379 1.14374874 8.37074148 1.71313214 10.9375 2.3125 C15.68644297 3.41913442 20.45840109 3.86491491 25.3125 4.25 C25.3125 4.58 25.3125 4.91 25.3125 5.25 C13.22141626 5.98156137 2.07875293 3.78312975 -9.6875 1.25 C-6.0068926 -0.78142443 -4.16188848 -0.80517581 0 0 Z " fill="#C1C0C0" transform="translate(364.6875,421.75)"/>
<path d="M0 0 C7.70470161 0.37280814 15.26386599 2.06679519 20.77734375 7.87109375 C22.22292538 10.38816081 22.31442255 11.87308891 22.1875 14.75 C22.16042969 15.54921875 22.13335937 16.3484375 22.10546875 17.171875 C22.07066406 17.77515625 22.03585937 18.3784375 22 19 C20 17 20 17 19.75 13.6875 C18.98597516 9.93104452 18.23235977 8.415142 15.1640625 6.1328125 C10.41400194 3.6463187 5.16014407 2.37042402 0 1 C0 0.67 0 0.34 0 0 Z " fill="#595355" transform="translate(340,350)"/>
<path d="M0 0 C0.33 0.66 0.66 1.32 1 2 C-0.07421875 4.3125 -0.07421875 4.3125 -1.6875 7 C-2.20699219 7.886875 -2.72648437 8.77375 -3.26171875 9.6875 C-5.08341153 12.11096546 -6.15559784 13.04084113 -9 14 C-15.26717977 13.78009896 -15.26717977 13.78009896 -17.9375 10.9375 C-18.288125 10.298125 -18.63875 9.65875 -19 9 C-18.319375 9.350625 -17.63875 9.70125 -16.9375 10.0625 C-13.07573919 11.29497686 -10.87816921 11.19870685 -7 10 C-5.64927637 8.32338749 -4.76858313 6.66400854 -3.84375 4.72265625 C-2.87451522 2.7438019 -1.67387073 1.42279012 0 0 Z " fill="#2F2F2F" transform="translate(220,115)"/>
<path d="M0 0 C1.17755859 0.28617187 1.17755859 0.28617187 2.37890625 0.578125 C6.42915036 1.49945084 10.4661916 2.28350415 14.56640625 2.953125 C16.10167969 3.20449219 16.10167969 3.20449219 17.66796875 3.4609375 C18.41820312 3.58210938 19.1684375 3.70328125 19.94140625 3.828125 C19.94140625 4.158125 19.94140625 4.488125 19.94140625 4.828125 C11.02764176 6.73821739 3.50265552 4.27569688 -5.05859375 1.828125 C-2.05859375 -0.171875 -2.05859375 -0.171875 0 0 Z " fill="#C2C1C1" transform="translate(191.05859375,456.171875)"/>
<path d="M0 0 C0.680625 0.70125 1.36125 1.4025 2.0625 2.125 C4.71281256 4.79045721 7.54467464 7.18742709 10.44921875 9.5703125 C12.99325744 11.9156983 13.96221223 13.54654679 14.25 17 C14 20 14 20 12 23 C11.34 22.67 10.68 22.34 10 22 C10.33 21.67 10.66 21.34 11 21 C11.48027685 16.8376006 11.58267463 14.76476045 9 11.375 C5.49572991 8.60078618 1.85711167 6.24918422 -2 4 C-1.34 3.67 -0.68 3.34 0 3 C0 2.01 0 1.02 0 0 Z " fill="#4E4E4E" transform="translate(76,286)"/>
<path d="M0 0 C0.33 0 0.66 0 1 0 C1.33 1.98 1.66 3.96 2 6 C0.96552734 6.32871094 0.96552734 6.32871094 -0.08984375 6.6640625 C-6.80587188 8.93037652 -12.30790195 11.78363108 -18 16 C-18 15.01 -18 14.02 -18 13 C-15.734375 11.24609375 -15.734375 11.24609375 -12.75 9.4375 C-11.77546875 8.83808594 -10.8009375 8.23867188 -9.796875 7.62109375 C-3.54939759 4 -3.54939759 4 0 4 C0 2.68 0 1.36 0 0 Z " fill="#514C4E" transform="translate(178,377)"/>
<path d="M0 0 C0.66 0.99 1.32 1.98 2 3 C2.66 3 3.32 3 4 3 C3.63282337 10.22114047 3.63282337 10.22114047 0.5625 14 C-2 16 -2 16 -4 16 C-2.125 11.25 -2.125 11.25 -1 9 C-0.77532169 7.46331135 -0.59203195 5.92031946 -0.4375 4.375 C-0.35371094 3.55773437 -0.26992188 2.74046875 -0.18359375 1.8984375 C-0.12300781 1.27195312 -0.06242187 0.64546875 0 0 Z " fill="#DADADA" transform="translate(456,107)"/>
<path d="M0 0 C2.875 2 2.875 2 5 4 C4.01 4.495 4.01 4.495 3 5 C2.01 4.34 1.02 3.68 0 3 C-3.12521833 2.83300768 -3.12521833 2.83300768 -6 3 C-6.33 4.65 -6.66 6.3 -7 8 C-5.02 9.65 -3.04 11.3 -1 13 C-4 13 -4 13 -6.6875 11.375 C-9 9 -9 9 -9.5 5.9375 C-9 3 -9 3 -7.875 1.125 C-5.06181421 -0.56291147 -3.22507435 -0.45151041 0 0 Z " fill="#443E41" transform="translate(188,373)"/>
<path d="M0 0 C0.66 0.99 1.32 1.98 2 3 C1.525625 3.845625 1.05125 4.69125 0.5625 5.5625 C-1.05721513 9.12587329 -1.61256143 12.12561425 -2 16 C-2.66 15.67 -3.32 15.34 -4 15 C-3.67 14.01 -3.34 13.02 -3 12 C-3.66 12 -4.32 12 -5 12 C-4.58525633 6.71201818 -3.64775386 3.88309282 0 0 Z " fill="#DCDCDC" transform="translate(48,313)"/>
<path d="M0 0 C0.66 0.33 1.32 0.66 2 1 C2.99 0.67 3.98 0.34 5 0 C6.66621616 -0.03874921 8.33394172 -0.0450286 10 0 C8 2 8 2 4.5625 3.3125 C0.74827454 5.11923838 -0.27578568 6.24729824 -2 10 C-2.99 9.67 -3.98 9.34 -5 9 C-3.90931332 5.22454612 -3.0916909 2.52956528 0 0 Z " fill="#E2E2E2" transform="translate(46,295)"/>
<path d="M0 0 C0.78375 0.04125 1.5675 0.0825 2.375 0.125 C2.375 1.445 2.375 2.765 2.375 4.125 C1.59125 4.24875 0.8075 4.3725 0 4.5 C-2.81601512 5.8542184 -2.81601512 5.8542184 -3.40234375 8.484375 C-3.89435449 11.02702904 -4.30730996 13.55502979 -4.625 16.125 C-5.285 15.795 -5.945 15.465 -6.625 15.125 C-6.85526319 10.40460464 -6.17124614 6.5919333 -4.625 2.125 C-2.625 0.125 -2.625 0.125 0 0 Z " fill="#DFDFDF" transform="translate(432.625,108.875)"/>
<path d="M0 0 C3.99377357 -0.47544923 5.68879335 -0.19917226 9.125 2 C12.33272208 4.97859908 14.9751295 8.7040845 16 13 C15.09375 15.24609375 15.09375 15.24609375 14 17 C13.78085937 16.33613281 13.56171875 15.67226562 13.3359375 14.98828125 C10.76451262 7.82801279 8.35735983 4.40801464 1.625 0.6875 C1.08875 0.460625 0.5525 0.23375 0 0 Z " fill="#2C2C2C" transform="translate(259,68)"/>
<path d="M0 0 C0.33 0 0.66 0 1 0 C1.31515515 5.88289614 1.06173309 10.83332541 -2 16 C-4.12452855 18.31140837 -6.34767077 20.31273514 -9 22 C-9.66 22 -10.32 22 -11 22 C-11 21.01 -11 20.02 -11 19 C-9.63875 18.5359375 -9.63875 18.5359375 -8.25 18.0625 C-3.77035007 15.21964524 -2.56433981 11.95510778 -1 7 C-0.48738479 4.63507775 -0.20580491 2.41820767 0 0 Z " fill="#464042" transform="translate(402,405)"/>
<path d="M0 0 C3.56920443 -0.33201902 5.50670837 -0.29362597 8.625 1.5625 C12.1521771 5.18249755 14.80769823 8.74045419 15.25 13.9375 C15.12625 14.9584375 15.12625 14.9584375 15 16 C13.00295012 14.00295012 12.31191187 12.66090763 11.1875 10.125 C8.68367303 4.98703537 5.19149385 2.3073306 0 0 Z " fill="#242424" transform="translate(204,68)"/>
<path d="M0 0 C3.93743833 -0.05797565 7.87476719 -0.09358789 11.8125 -0.125 C12.93205078 -0.14175781 14.05160156 -0.15851563 15.20507812 -0.17578125 C16.27822266 -0.18222656 17.35136719 -0.18867188 18.45703125 -0.1953125 C19.9416687 -0.21102295 19.9416687 -0.21102295 21.45629883 -0.22705078 C24 0 24 0 27 2 C23.98968256 2.93423645 23.13349732 3.04449911 20 2 C18.6144556 1.94221868 17.22616762 1.93833292 15.83984375 1.97265625 C14.6497168 1.99102539 14.6497168 1.99102539 13.43554688 2.00976562 C11.76619098 2.04500613 10.09691187 2.08408709 8.42773438 2.12695312 C7.23954102 2.14338867 7.23954102 2.14338867 6.02734375 2.16015625 C5.30281006 2.17699463 4.57827637 2.19383301 3.83178711 2.21118164 C2 2 2 2 0 0 Z " fill="#5E595A" transform="translate(358,381)"/>
<path d="M0 0 C0.66 1.32 1.32 2.64 2 4 C1.67 4.33 1.34 4.66 1 5 C0.76712992 6.68183948 0.58735834 8.3712416 0.4375 10.0625 C0.31181641 11.44115234 0.31181641 11.44115234 0.18359375 12.84765625 C0.12300781 13.55792969 0.06242187 14.26820313 0 15 C-0.66 14.01 -1.32 13.02 -2 12 C-2.66 12 -3.32 12 -4 12 C-3.28571429 3.42857143 -3.28571429 3.42857143 0 0 Z " fill="#DADADA" transform="translate(56,318)"/>
<path d="M0 0 C0.804375 0.7425 0.804375 0.7425 1.625 1.5 C4.47983678 3.30305481 5.2608789 3.00976332 8.5 2.5 C12.71527778 1.84027778 12.71527778 1.84027778 15.5625 3.4375 C16.036875 3.953125 16.51125 4.46875 17 5 C14.03 5 11.06 5 8 5 C7.34 6.32 6.68 7.64 6 9 C6 7.68 6 6.36 6 5 C5.01 5.33 4.02 5.66 3 6 C2.34 5.01 1.68 4.02 1 3 C-1.05003955 1.80767387 -1.05003955 1.80767387 -3 1 C-2.01 0.67 -1.02 0.34 0 0 Z " fill="#585858" transform="translate(57,313)"/>
<path d="M0 0 C0.66 0.66 1.32 1.32 2 2 C1.01 3.2684375 1.01 3.2684375 0 4.5625 C-3.03433791 9.77776827 -2.38398088 14.29107886 -1 20 C-3.78174197 18.06487515 -4.08415299 16.66899825 -4.9375 13.3125 C-5.41254975 8.47237045 -3.57187595 4.99737308 -1 1 C-0.67 0.67 -0.34 0.34 0 0 Z " fill="#474747" transform="translate(427,109)"/>
<path d="M0 0 C3.95732694 5.9359904 3.07907795 13.14792002 2.5625 20 C2.51029297 20.77472656 2.45808594 21.54945312 2.40429688 22.34765625 C2.27633098 24.23224487 2.13914404 26.11620371 2 28 C1.67 28 1.34 28 1 28 C0.96241577 27.07719238 0.96241577 27.07719238 0.92407227 26.13574219 C0.80781513 23.34029844 0.68522358 20.54516702 0.5625 17.75 C0.52318359 16.78191406 0.48386719 15.81382813 0.44335938 14.81640625 C0.40146484 13.88183594 0.35957031 12.94726562 0.31640625 11.984375 C0.27974854 11.12553711 0.24309082 10.26669922 0.20532227 9.38183594 C0.07381692 7.01855861 0.07381692 7.01855861 -0.58227539 4.87597656 C-1 3 -1 3 0 0 Z " fill="#4E4E4E" transform="translate(219,81)"/>
<path d="M0 0 C0.33 0 0.66 0 1 0 C1.35430394 3.18873549 1.25953249 4.61589191 -0.5625 7.3125 C-3.94241422 9.65244061 -5.96620353 9.56614687 -10 9 C-12.9375 7 -12.9375 7 -15 5 C-14.24074219 5.10699219 -13.48148437 5.21398437 -12.69921875 5.32421875 C-11.20841797 5.50404297 -11.20841797 5.50404297 -9.6875 5.6875 C-8.70136719 5.81511719 -7.71523438 5.94273438 -6.69921875 6.07421875 C-3.99674176 6.25310617 -3.99674176 6.25310617 -2.20703125 4.70703125 C-0.80590113 2.90022905 -0.80590113 2.90022905 0 0 Z " fill="#4A4A4A" transform="translate(471,122)"/>
<path d="M0 0 C0.86625 0.309375 1.7325 0.61875 2.625 0.9375 C2.625 1.2675 2.625 1.5975 2.625 1.9375 C1.738125 2.1025 0.85125 2.2675 -0.0625 2.4375 C-4.19567296 4.30912549 -5.21661928 6.36080011 -7.296875 10.2578125 C-7.83054688 11.08925781 -7.83054688 11.08925781 -8.375 11.9375 C-9.035 11.9375 -9.695 11.9375 -10.375 11.9375 C-10.0972218 7.35415974 -8.0348751 4.57299558 -5.07421875 1.25390625 C-3.375 -0.0625 -3.375 -0.0625 0 0 Z " fill="#3B3B3B" transform="translate(260.375,68.0625)"/>
<path d="M0 0 C0.66 0.99 1.32 1.98 2 3 C1.34 4.32 0.68 5.64 0 7 C-0.66 7 -1.32 7 -2 7 C-2.556875 7.495 -3.11375 7.99 -3.6875 8.5 C-6.84793354 10.55001095 -9.31330167 10.21269413 -13 10 C-10.66114581 8.8305729 -8.34373547 7.71874377 -5.9375 6.6875 C-2.69548151 4.82506384 -1.61330906 3.31624641 0 0 Z " fill="#E2E2E2" transform="translate(468,135)"/>
<path d="M0 0 C8.91 1.98 8.91 1.98 18 4 C18 4.66 18 5.32 18 6 C15.95737483 5.71512349 13.91592973 5.42177949 11.875 5.125 C10.73804688 4.96257812 9.60109375 4.80015625 8.4296875 4.6328125 C5.13921085 4.02568583 2.14220897 3.13654367 -1 2 C-0.67 1.34 -0.34 0.68 0 0 Z " fill="#5B5758" transform="translate(325,411)"/>
<path d="M0 0 C0.66 0 1.32 0 2 0 C2.37125 1.0725 2.7425 2.145 3.125 3.25 C4.86877243 7.40304256 7.12258093 8.8458783 11 11 C10.01 11.495 10.01 11.495 9 12 C8.01 11.67 7.02 11.34 6 11 C6 11.99 6 12.98 6 14 C5.34 14 4.68 14 4 14 C4.061875 13.2575 4.12375 12.515 4.1875 11.75 C3.96397661 8.47165697 2.98190193 7.53683448 1 5 C0.3125 2.25 0.3125 2.25 0 0 Z " fill="#2F2F2F" transform="translate(61,318)"/>
<path d="M0 0 C0.33 0.99 0.66 1.98 1 3 C-3.51350747 6.52273754 -6.28341664 7.45732667 -12 7 C-11.67 6.34 -11.34 5.68 -11 5 C-9.906875 4.690625 -8.81375 4.38125 -7.6875 4.0625 C-4.34157308 3.09841936 -2.56326882 2.25567656 0 0 Z " fill="#ECECEC" transform="translate(467,140)"/>
<path d="M0 0 C0.99 0.33 1.98 0.66 3 1 C2.64950425 4.24208567 2.43778819 5.61527704 -0.0625 7.8125 C-0.701875 8.204375 -1.34125 8.59625 -2 9 C-2.66 8.34 -3.32 7.68 -4 7 C-2.68 4.69 -1.36 2.38 0 0 Z " fill="#D9D9D9" transform="translate(465,118)"/>
<path d="M0 0 C2 2 2 2 2.3125 5.9375 C2.25612142 8.76155426 2.23113287 9.69182284 0.5 12 C0.005 12.33 -0.49 12.66 -1 13 C-1.99 12.34 -2.98 11.68 -4 11 C-3.01 10.67 -2.02 10.34 -1 10 C-1.01160156 9.36191406 -1.02320313 8.72382813 -1.03515625 8.06640625 C-1.04869141 6.82697266 -1.04869141 6.82697266 -1.0625 5.5625 C-1.07410156 4.73878906 -1.08570313 3.91507812 -1.09765625 3.06640625 C-1 1 -1 1 0 0 Z " fill="#585254" transform="translate(206,395)"/>
<path d="M0 0 C3.98128493 1.53663629 4.85870573 2.5665187 6.5625 6.375 C2.53382081 6.375 0.80470658 4.67156299 -2.4375 2.375 C-3.4275 1.715 -4.4175 1.055 -5.4375 0.375 C-3.4375 -0.625 -3.4375 -0.625 0 0 Z " fill="#4B4B4B" transform="translate(442.4375,109.625)"/>
<path d="M0 0 C0.66 0.33 1.32 0.66 2 1 C1.0409375 2.051875 1.0409375 2.051875 0.0625 3.125 C-2.16386102 6.22841233 -2.65080943 8.24620139 -3 12 C-4.50303217 9.61283126 -5.01411453 8.28934794 -4.875 5.4375 C-3.82403075 2.50979994 -2.61277458 1.60137797 0 0 Z " fill="#3B3739" transform="translate(158,392)"/>
<path d="M0 0 C1.65 0.33 3.3 0.66 5 1 C4.34 1.66 3.68 2.32 3 3 C2.28072705 5.31765729 1.6090107 7.65095874 1 10 C-0.80411967 7.24075815 -1.0127245 6.11027897 -0.625 2.75 C-0.41875 1.8425 -0.2125 0.935 0 0 Z " fill="#DEDEDE" transform="translate(448,103)"/>
<path d="M0 0 C0.66 0.66 1.32 1.32 2 2 C0.68 5.63 -0.64 9.26 -2 13 C-2.66 13 -3.32 13 -4 13 C-3.40895235 8.15340923 -2.02055843 4.39251833 0 0 Z " fill="#615A5C" transform="translate(311,384)"/>
<path d="M0 0 C2.60018816 3.90028225 2.15085514 7.47434569 2 12 C1.01 12.495 1.01 12.495 0 13 C-1.57170996 9.85658007 -1.23175783 6.44228549 -1 3 C-0.67 2.01 -0.34 1.02 0 0 Z " fill="#585858" transform="translate(37,306)"/>
<path d="M0 0 C0.66 0.33 1.32 0.66 2 1 C0.9375 3.4375 0.9375 3.4375 -1 6 C-4.6875 6.8125 -4.6875 6.8125 -8 7 C-7.01 6.67 -6.02 6.34 -5 6 C-5 5.34 -5 4.68 -5 4 C-4.360625 3.896875 -3.72125 3.79375 -3.0625 3.6875 C-2.381875 3.460625 -1.70125 3.23375 -1 3 C-0.67 2.01 -0.34 1.02 0 0 Z " fill="#DEDEDE" transform="translate(85,324)"/>
<path d="M0 0 C0.66 0 1.32 0 2 0 C3.71767682 3.98188718 5.41037341 7.96479403 7 12 C1.33064516 6.62903226 1.33064516 6.62903226 0 3 C0 2.01 0 1.02 0 0 Z " fill="#454545" transform="translate(54,302)"/>
<path d="M0 0 C3.82868919 1.45226142 5.2538953 3.33318013 7 7 C7 8.32 7 9.64 7 11 C6.34 11 5.68 11 5 11 C4.54625 9.9275 4.0925 8.855 3.625 7.75 C2.49911463 5.11937683 1.32079794 2.53999604 0 0 Z " fill="#484848" transform="translate(451,127)"/>
<path d="M0 0 C0 0.99 0 1.98 0 3 C-1.64333504 4.03789581 -3.31243867 5.03567924 -5 6 C-5.99 7.485 -5.99 7.485 -7 9 C-7.66 9 -8.32 9 -9 9 C-7.48328036 4.44984107 -3.83108947 2.49942736 0 0 Z " fill="#565153" transform="translate(354,383)"/>
<path d="M0 0 C0.66 0 1.32 0 2 0 C3.36952673 2.73905345 3.12621361 4.97087332 3 8 C2.67 8.66 2.34 9.32 2 10 C1.34 10 0.68 10 0 10 C0 6.7 0 3.4 0 0 Z " fill="#ECECEC" transform="translate(85,314)"/>
<path d="M0 0 C1 2 1 2 1 6 C1.66 6.66 2.32 7.32 3 8 C-0.63 8 -4.26 8 -8 8 C-7.67 7.34 -7.34 6.68 -7 6 C-5.02 6 -3.04 6 -1 6 C-1.020625 5.195625 -1.04125 4.39125 -1.0625 3.5625 C-1 1 -1 1 0 0 Z " fill="#232323" transform="translate(436,102)"/>
<path d="M0 0 C0.33 0 0.66 0 1 0 C1.125 7.75 1.125 7.75 0 10 C-0.66 10 -1.32 10 -2 10 C-1.85950482 8.52031676 -1.71245174 7.04125484 -1.5625 5.5625 C-1.48128906 4.73878906 -1.40007812 3.91507812 -1.31640625 3.06640625 C-1 1 -1 1 0 0 Z " fill="#535353" transform="translate(475,123)"/>
<path d="M0 0 C0.928125 0.20625 1.85625 0.4125 2.8125 0.625 C2.8125 1.285 2.8125 1.945 2.8125 2.625 C-0.1575 2.295 -3.1275 1.965 -6.1875 1.625 C-3.1875 -0.375 -3.1875 -0.375 0 0 Z " fill="#C9C8C8" transform="translate(192.1875,456.375)"/>
<path d="M0 0 C2.83374881 3.20336822 3.5205537 5.78087253 4 10 C1.2027092 7.93243723 0.97307727 6.85559629 0.3125 3.3125 C0.209375 2.219375 0.10625 1.12625 0 0 Z " fill="#BFBEBF" transform="translate(153,403)"/>
<path d="M0 0 C0.6875 1.8125 0.6875 1.8125 1 4 C-0.4375 5.75 -0.4375 5.75 -2 7 C-2.6875 5.1875 -2.6875 5.1875 -3 3 C-1.5625 1.25 -1.5625 1.25 0 0 Z " fill="#D8D8D8" transform="translate(75,332)"/>
<path d="M0 0 C0 0.66 0 1.32 0 2 C-1.75 3.2890625 -1.75 3.2890625 -4 4.625 C-4.7425 5.07101562 -5.485 5.51703125 -6.25 5.9765625 C-6.8275 6.31429688 -7.405 6.65203125 -8 7 C-6.31771309 3.36505864 -4.4190252 0 0 0 Z " fill="#4C4648" transform="translate(198,426)"/>
<path d="M0 0 C0.99 0.33 1.98 0.66 3 1 C2.34 1 1.68 1 1 1 C0.34 3.31 -0.32 5.62 -1 8 C-1.66 7.67 -2.32 7.34 -3 7 C-2.38722388 4.03824877 -1.74627478 2.61941217 0 0 Z " fill="#434343" transform="translate(59,319)"/>
</svg>
