<?xml version="1.0" encoding="UTF-8"?>
<svg version="1.1" xmlns="http://www.w3.org/2000/svg" width="192" height="192">
<path d="M0 0 C63.36 0 126.72 0 192 0 C192 63.36 192 126.72 192 192 C128.64 192 65.28 192 0 192 C0 128.64 0 65.28 0 0 Z " fill="#D8D8D8" transform="translate(0,0)"/>
<path d="M0 0 C7.94165934 5.75870745 13.94409553 12.9610557 16.56640625 22.4921875 C18.49788055 34.68648144 16.82838218 45.36012916 9.56640625 55.4921875 C2.8161512 63.19471068 -6.37909088 68.68083426 -16.66015625 69.86328125 C-27.98674152 70.08460533 -36.19930682 67.58336969 -44.87109375 60.1796875 C-48.8669972 56.31185788 -51.96396178 52.47160806 -54.43359375 47.4921875 C-55.03171875 46.3165625 -55.62984375 45.1409375 -56.24609375 43.9296875 C-59.2574837 35.15512023 -58.49253066 24.88266256 -54.5703125 16.5703125 C-49.17637692 6.7092344 -40.6371815 -1.42502036 -29.78515625 -5.03515625 C-19.1842091 -7.16591141 -9.16920663 -5.68108148 0 0 Z " fill="#D5D5D5" transform="translate(108.43359375,19.5078125)"/>
<path d="M0 0 C8.9788674 -1.03602316 16.65528183 3.14147173 23.625 8.625 C29.54662034 14.54662034 29.05446163 21.47147281 29.0625 29.4375 C29.04653255 31.62504093 29.02730494 33.81257121 29 36 C29.969375 36.309375 30.93875 36.61875 31.9375 36.9375 C35 38 35 38 36 39 C36.04063832 40.66617115 36.042721 42.33388095 36 44 C35.01 44 34.02 44 33 44 C33 44.99 33 45.98 33 47 C33.65226562 46.95359375 34.30453125 46.9071875 34.9765625 46.859375 C40.89538162 46.61493999 44.34881773 46.93021552 49 51 C51.14291019 54.21436529 51.30025791 56.17426609 51.4609375 59.96484375 C50.76935712 63.01834695 49.49859443 64.16001366 47 66 C37.39452929 67.02595148 23.05175218 64.36783479 15 59 C14.2964891 53.17090966 15.27805472 49.99940975 18.109375 44.96484375 C19.51163865 41.87125334 19.27890459 39.34685507 19 36 C19.99 35.505 19.99 35.505 21 35 C21.35730428 28.56852295 20.69742052 22.91791498 18 17 C15.89556756 14.7415847 14.54102686 13.55197292 12 12 C10.74123047 11.22849609 10.74123047 11.22849609 9.45703125 10.44140625 C7.70566287 9.38755255 5.94440359 8.34989236 4.171875 7.33203125 C2 6 2 6 0 4 C0 2.68 0 1.36 0 0 Z " fill="#D4D4D4" transform="translate(100,95)"/>
<path d="M0 0 C2.4375 0.375 2.4375 0.375 5 1 C8.02969265 7.05938531 6.53074938 17.46238773 4.8125 23.9296875 C2.79594083 29.06803538 -0.55481266 33.35466981 -4.171875 37.47265625 C-9.08777186 42.85642508 -9.08777186 42.85642508 -10.375 49.75 C-10.30023438 50.47574219 -10.22546875 51.20148438 -10.1484375 51.94921875 C-9.93353183 54.91831028 -10.88565231 57.2837775 -12 60 C-10.63875 60.3403125 -10.63875 60.3403125 -9.25 60.6875 C-4.9618853 62.41923863 -3.04010214 64.91979573 -1 69 C-0.95977609 71.3329866 -0.95679753 73.66706666 -1 76 C-8.76379268 76.37566739 -16.40745689 76.05970415 -22.5546875 70.82421875 C-25.2083367 67.7593811 -27.09939957 64.61296088 -28.875 61 C-29.1946875 60.39671875 -29.514375 59.7934375 -29.84375 59.171875 C-31.20940461 56.44056578 -32.00284614 54.33252359 -31.9765625 51.26171875 C-30.70025166 48.30578284 -29.25167413 47.43651021 -26.5 45.8125 C-23.14752456 43.97418564 -23.14752456 43.97418564 -21 41 C-19.02 41 -17.04 41 -15 41 C-14.76410156 40.35289062 -14.52820313 39.70578125 -14.28515625 39.0390625 C-12.58222935 35.01208034 -10.51400393 31.21964866 -8.4375 27.375 C-7.6215526 25.86313502 -6.80766251 24.35015744 -5.99609375 22.8359375 C-5.63700928 22.17126465 -5.2779248 21.5065918 -4.90795898 20.82177734 C-2.77727937 16.54666809 -2.68203821 12.47148382 -2.37890625 7.7890625 C-1.98844295 4.91493055 -1.18411146 2.63668543 0 0 Z " fill="#D6D6D6" transform="translate(88,99)"/>
<path d="M0 0 C7.94165934 5.75870745 13.94409553 12.9610557 16.56640625 22.4921875 C18.49788055 34.68648144 16.82838218 45.36012916 9.56640625 55.4921875 C2.8161512 63.19471068 -6.37909088 68.68083426 -16.66015625 69.86328125 C-27.98674152 70.08460533 -36.19930682 67.58336969 -44.87109375 60.1796875 C-48.8669972 56.31185788 -51.96396178 52.47160806 -54.43359375 47.4921875 C-55.03171875 46.3165625 -55.62984375 45.1409375 -56.24609375 43.9296875 C-59.2574837 35.15512023 -58.49253066 24.88266256 -54.5703125 16.5703125 C-49.17637692 6.7092344 -40.6371815 -1.42502036 -29.78515625 -5.03515625 C-19.1842091 -7.16591141 -9.16920663 -5.68108148 0 0 Z M-46.4453125 7.671875 C-54.35797086 17.52537408 -56.67291606 26.91377827 -55.43359375 39.4921875 C-52.69061123 49.66459353 -47.41247365 57.1348771 -38.62109375 62.8671875 C-33.67109768 65.62300982 -29.05110969 66.93043591 -23.43359375 67.4921875 C-22.60859375 67.5746875 -21.78359375 67.6571875 -20.93359375 67.7421875 C-10.93618007 68.24205818 -2.76902831 64.03716575 4.56640625 57.4921875 C11.7314412 50.89106734 14.60153887 42.86822788 15.14111328 33.26098633 C15.3913443 22.28361896 12.248668 14.13192595 4.69140625 5.9921875 C0.99221281 2.5894943 -2.78702255 0.35473714 -7.43359375 -1.5078125 C-8.79484375 -2.1265625 -8.79484375 -2.1265625 -10.18359375 -2.7578125 C-23.42519072 -5.81356565 -37.13433692 -2.41652184 -46.4453125 7.671875 Z " fill="#1A1A1A" transform="translate(108.43359375,19.5078125)"/>
<path d="M0 0 C2.4375 0.375 2.4375 0.375 5 1 C8.02813533 7.05627066 6.53869813 17.4765289 4.8046875 23.9375 C1.3862522 32.69931474 -5.95359264 39.9378918 -12 47 C-13.32 45.68 -14.64 44.36 -16 43 C-13.76924718 37.5598415 -11.17156575 32.41913604 -8.375 27.25 C-7.56817857 25.75635905 -6.76340246 24.26161099 -5.9609375 22.765625 C-5.60821777 22.11368164 -5.25549805 21.46173828 -4.89208984 20.79003906 C-2.76897254 16.52985951 -2.68093465 12.45443737 -2.37890625 7.7890625 C-1.98844295 4.91493055 -1.18411146 2.63668543 0 0 Z " fill="#2A2626" transform="translate(88,99)"/>
<path d="M0 0 C8.9788674 -1.03602316 16.65528183 3.14147173 23.625 8.625 C29.54662034 14.54662034 29.05446163 21.47147281 29.0625 29.4375 C29.04653255 31.62504093 29.02730494 33.81257121 29 36 C27.02 36 25.04 36 23 36 C22.81993408 35.17592651 22.81993408 35.17592651 22.63623047 34.33520508 C22.0728341 31.82165167 21.47435066 29.31771269 20.875 26.8125 C20.68679687 25.94818359 20.49859375 25.08386719 20.3046875 24.19335938 C18.46500722 16.69091322 15.75843896 14.40605269 9.296875 10.26953125 C8.45640625 9.78871094 7.6159375 9.30789062 6.75 8.8125 C4.14912291 7.31896604 2.12440222 6.12440222 0 4 C0 2.68 0 1.36 0 0 Z " fill="#2A2626" transform="translate(100,95)"/>
<path d="M0 0 C0.33 0 0.66 0 1 0 C1 1.65 1 3.3 1 5 C2.8253125 4.9071875 2.8253125 4.9071875 4.6875 4.8125 C8.56946196 4.82629027 11.02783994 5.30647994 14 8 C14.3125 10.6875 14.3125 10.6875 14 13 C13.01 13 12.02 13 11 13 C11 13.99 11 14.98 11 16 C11.66386719 15.96519531 12.32773438 15.93039063 13.01171875 15.89453125 C21.78207381 15.62565905 21.78207381 15.62565905 26 19 C25.01 19.495 25.01 19.495 24 20 C23.34 19.67 22.68 19.34 22 19 C20.21140489 18.87792129 18.41771619 18.82451552 16.625 18.8125 C15.66851562 18.79832031 14.71203125 18.78414062 13.7265625 18.76953125 C10.96989983 19.00254428 9.35052605 19.59079836 7 21 C7.66 20.01 8.32 19.02 9 18 C9.39013716 16.0103005 9.73202649 14.00980131 10 12 C6.37 11.67 2.74 11.34 -1 11 C-1.28875 11.9075 -1.5775 12.815 -1.875 13.75 C-3 17 -3 17 -4.125 19.125 C-5.28192364 21.25926907 -5.28192364 21.25926907 -5 25 C-3.82630859 25.38091797 -3.82630859 25.38091797 -2.62890625 25.76953125 C-1.61699219 26.11371094 -0.60507813 26.45789063 0.4375 26.8125 C1.95150391 27.31716797 1.95150391 27.31716797 3.49609375 27.83203125 C4.32238281 28.21746094 5.14867188 28.60289062 6 29 C6.33 29.99 6.66 30.98 7 32 C1.58609132 31.53328373 -2.20517932 30.75702189 -7 28 C-7.41714097 22.16002647 -6.73868765 19.02918051 -3.890625 13.96484375 C-2.48836135 10.87125334 -2.72109541 8.34685507 -3 5 C-2.34 4.67 -1.68 4.34 -1 4 C-0.34786708 1.97536745 -0.34786708 1.97536745 0 0 Z " fill="#979494" transform="translate(122,126)"/>
<path d="M0 0 C0 0.99 0 1.98 0 3 C-1.84464844 2.93039063 -1.84464844 2.93039063 -3.7265625 2.859375 C-5.3593506 2.82183964 -6.99216511 2.78544138 -8.625 2.75 C-9.43324219 2.71648437 -10.24148437 2.68296875 -11.07421875 2.6484375 C-16.58146365 2.5588888 -19.65147056 3.30601821 -24 7 C-28.00842564 11.15128358 -30.70445983 15.08919655 -31 21 C-34.3 20.34 -37.6 19.68 -41 19 C-41 18.67 -41 18.34 -41 18 C-39.02 18 -37.04 18 -35 18 C-34.83757813 16.90365234 -34.83757813 16.90365234 -34.671875 15.78515625 C-32.75969284 7.85849417 -26.86405416 2.40430037 -20.1875 -1.75 C-12.92342508 -4.59865683 -6.96115441 -2.7071156 0 0 Z " fill="#3F373A" transform="translate(61,88)"/>
<path d="M0 0 C4.95 0.99 4.95 0.99 10 2 C10 2.33 10 2.66 10 3 C8.02 3 6.04 3 4 3 C3.79375 3.804375 3.5875 4.60875 3.375 5.4375 C-0.20229784 14.70595349 -5.26843666 19.63421833 -14 24 C-19.71274291 24.50030131 -24.59646117 23.83950258 -30 22 C-30.33 20.68 -30.66 19.36 -31 18 C-29.84242188 18.03480469 -28.68484375 18.06960937 -27.4921875 18.10546875 C-25.9531396 18.13362207 -24.41407589 18.16092056 -22.875 18.1875 C-22.11445313 18.21263672 -21.35390625 18.23777344 -20.5703125 18.26367188 C-15.60890236 18.32782804 -12.30295121 17.73999584 -8 15 C-3.91850895 10.72867215 0 6.12080363 0 0 Z " fill="#3E3639" transform="translate(162,56)"/>
<path d="M0 0 C-0.61746094 0.14695312 -1.23492187 0.29390625 -1.87109375 0.4453125 C-12.19447843 3.17935958 -19.31471985 7.8962395 -25 17 C-29.47120312 24.7089709 -29.87071222 33.25329996 -29 42 C-26.1881779 52.1322555 -21.55493414 59.00900689 -12.625 64.4375 C-11.09043942 65.30436829 -9.55112341 66.16312907 -8 67 C-8.99 67.99 -8.99 67.99 -10 69 C-21.56439161 61.84109091 -27.65073121 55.04780637 -32 42 C-32.88292742 30.05876853 -31.4440043 20.69976317 -24 11 C-18.57196953 4.79653661 -8.36029482 -4.70600817 0 0 Z " fill="#181818" transform="translate(83,17)"/>
<path d="M0 0 C4.12146058 -0.32325181 6.3675734 -0.39022067 9.9375 1.8125 C12 4 12 4 12 7 C11.01 7 10.02 7 9 7 C9.515625 7.391875 10.03125 7.78375 10.5625 8.1875 C11.036875 8.785625 11.51125 9.38375 12 10 C11.6875 12.6875 11.6875 12.6875 11 15 C9.68 15.33 8.36 15.66 7 16 C7 16.99 7 17.98 7 19 C5.02 18.67 3.04 18.34 1 18 C1 16.35 1 14.7 1 13 C1.66 13 2.32 13 3 13 C1.91215032 9.75016865 1.91215032 9.75016865 0 7 C-0.33 7.66 -0.66 8.32 -1 9 C-1.99 8.01 -2.98 7.02 -4 6 C-3.67 5.01 -3.34 4.02 -3 3 C-1.68 3 -0.36 3 1 3 C0.67 2.01 0.34 1.02 0 0 Z " fill="#F5F5F5" transform="translate(21,108)"/>
<path d="M0 0 C10.66131621 1.97431782 10.66131621 1.97431782 14 5 C14.99896929 8.9245222 15.38637137 12.14896842 14 16 C13.34 16 12.68 16 12 16 C12 14.68 12 13.36 12 12 C10.02463255 12.34786708 10.02463255 12.34786708 8 13 C7.67 13.66 7.34 14.32 7 15 C6.7525 14.195625 6.505 13.39125 6.25 12.5625 C5.27761141 9.828919 5.27761141 9.828919 2.875 9.1875 C2.25625 9.125625 1.6375 9.06375 1 9 C1.66 9 2.32 9 3 9 C2.67 8.01 2.34 7.02 2 6 C0.35 5.67 -1.3 5.34 -3 5 C-3.79953138 8.28696233 -4.09658936 9.71023192 -3 13 C-3.66 13 -4.32 13 -5 13 C-4.01 14.98 -3.02 16.96 -2 19 C-3.32 18.34 -4.64 17.68 -6 17 C-6.05389087 15.04196493 -6.09274217 13.08351091 -6.125 11.125 C-6.14820313 10.03445312 -6.17140625 8.94390625 -6.1953125 7.8203125 C-6 5 -6 5 -4 3 C-3.01 3 -2.02 3 -1 3 C-0.67 2.01 -0.34 1.02 0 0 Z " fill="#9A9A9A" transform="translate(164,37)"/>
<path d="M0 0 C1.65 0.33 3.3 0.66 5 1 C5.103125 1.598125 5.20625 2.19625 5.3125 2.8125 C6.10161794 5.32332981 7.04744654 6.28175296 9 8 C9.66 8.66 10.32 9.32 11 10 C11.99 10 12.98 10 14 10 C13.67 11.32 13.34 12.64 13 14 C11.68 14 10.36 14 9 14 C8.67 14.99 8.34 15.98 8 17 C3.59885603 16.49701212 1.28804981 14.91227269 -2 12 C-1.814375 11.443125 -1.62875 10.88625 -1.4375 10.3125 C-0.83461649 7.95350072 -0.83461649 7.95350072 -1.5625 5.4375 C-2 3 -2 3 0 0 Z " fill="#F4F4F4" transform="translate(161,41)"/>
<path d="M0 0 C1.25425781 0.350625 2.50851563 0.70125 3.80078125 1.0625 C5.13312537 1.39976551 6.46620671 1.73417137 7.80078125 2.0625 C7.80078125 3.0525 7.80078125 4.0425 7.80078125 5.0625 C7.12273437 4.9903125 6.4446875 4.918125 5.74609375 4.84375 C4.81539062 4.7509375 3.8846875 4.658125 2.92578125 4.5625 C2.02085938 4.4696875 1.1159375 4.376875 0.18359375 4.28125 C-1.49089844 4.17296875 -1.49089844 4.17296875 -3.19921875 4.0625 C-3.96983643 3.97097656 -4.7404541 3.87945312 -5.53442383 3.78515625 C-9.29341966 3.50316862 -12.07299729 3.37688531 -15.35839844 5.37695312 C-17.41295464 7.1788422 -19.28053522 9.05727984 -21.13671875 11.0625 C-22.41058322 12.38090519 -23.69027199 13.69371533 -24.9765625 15 C-25.52562256 15.58652344 -26.07468262 16.17304687 -26.64038086 16.77734375 C-28.19921875 18.0625 -28.19921875 18.0625 -31.19921875 18.0625 C-24.84084993 4.40559976 -14.91255212 -3.39918467 0 0 Z " fill="#101010" transform="translate(101.19921875,55.9375)"/>
<path d="M0 0 C12.54916928 -0.65951839 22.11975492 0.78793961 31.9296875 9.015625 C37.3078145 14.17050899 42.87154782 20.39844847 44 28 C43.93390512 32.70290518 43.54439887 37.32997595 43 42 C42.67 42 42.34 42 42 42 C41.99613281 40.69289063 41.99613281 40.69289063 41.9921875 39.359375 C41.64293831 28.60249983 39.04460466 20.01521513 31.625 12 C24.62717925 5.65098383 15.93293665 2.90186434 6.625 2.375 C5.37976563 2.30023437 4.13453125 2.22546875 2.8515625 2.1484375 C1.91054687 2.09945313 0.96953125 2.05046875 0 2 C0 1.34 0 0.68 0 0 Z " fill="#282828" transform="translate(81,14)"/>
<path d="M0 0 C1.98 0 3.96 0 6 0 C6.66 1.65 7.32 3.3 8 5 C8.66 5 9.32 5 10 5 C10.93402724 10.41735797 11.20808081 13.80451575 9 19 C9.928125 19.268125 10.85625 19.53625 11.8125 19.8125 C14.76240366 20.91148371 16.05615186 21.62418561 18 24 C17.67 24.66 17.34 25.32 17 26 C16.34 25.34 15.68 24.68 15 24 C10.98141147 21.32094098 8.74694284 21.67817337 4 22 C4.495 21.62875 4.99 21.2575 5.5 20.875 C7.20388928 19.03436419 7.20388928 19.03436419 7.5625 16.3125 C6.75252193 11.54262917 4.08635367 8.6191171 1 5 C0.236875 5.165 -0.52625 5.33 -1.3125 5.5 C-4 6 -4 6 -7 6 C-6.030625 5.38125 -5.06125 4.7625 -4.0625 4.125 C-0.97164638 2.34321154 -0.97164638 2.34321154 0 0 Z " fill="#ABA9A9" transform="translate(67,140)"/>
<path d="M0 0 C3.875 2.625 3.875 2.625 5 6 C5.0685495 7.89470816 5.08480372 9.7916834 5.0625 11.6875 C5.05347656 12.68136719 5.04445313 13.67523438 5.03515625 14.69921875 C5.02355469 15.45847656 5.01195313 16.21773437 5 17 C4.34 16.01 3.68 15.02 3 14 C2.01 14 1.02 14 0 14 C0 14.66 0 15.32 0 16 C-0.99 16 -1.98 16 -3 16 C-4.16297973 13.67404054 -4.16600691 12.21276769 -4.1875 9.625 C-4.20167969 8.85414062 -4.21585937 8.08328125 -4.23046875 7.2890625 C-3.97404645 4.7422241 -3.35625154 3.16048491 -2 1 C-1.34 0.67 -0.68 0.34 0 0 Z " fill="#F2F5F5" transform="translate(77,26)"/>
<path d="M0 0 C2.375 0.1875 2.375 0.1875 5 1 C7.76735086 5.2169156 7.19038806 10.14510439 7 15 C6.34 14.34 5.68 13.68 5 13 C3.68 13 2.36 13 1 13 C1 13.66 1 14.32 1 15 C0.01 15 -0.98 15 -2 15 C-2.3690205 4.44191344 -2.3690205 4.44191344 0 0 Z " fill="#F6F8F8" transform="translate(96,27)"/>
<path d="M0 0 C0.33 0.66 0.66 1.32 1 2 C0.67 2.66 0.34 3.32 0 4 C-0.07033769 5.87379605 -0.0843022 7.75001102 -0.0625 9.625 C-0.05347656 10.62789062 -0.04445313 11.63078125 -0.03515625 12.6640625 C-0.02355469 13.43492188 -0.01195313 14.20578125 0 15 C0.99 15 1.98 15 3 15 C2.67 14.01 2.34 13.02 2 12 C3.65 12.33 5.3 12.66 7 13 C7 9.37 7 5.74 7 2 C9.42662992 4.42662992 9.67815803 6.34222714 10.046875 9.69140625 C9.96489955 13.72869707 8.5166972 17.29823057 7 21 C4.6875 21.25 4.6875 21.25 2 21 C-1.6263984 17.24408737 -2.15347297 13.56322136 -2.1875 8.5 C-2.20167969 7.5409375 -2.21585937 6.581875 -2.23046875 5.59375 C-2 3 -2 3 0 0 Z " fill="#707171" transform="translate(74,27)"/>
<path d="M0 0 C0.99 0.33 1.98 0.66 3 1 C3.6875 3.0625 3.6875 3.0625 4 5 C4.66 5 5.32 5 6 5 C6.19139889 10.45486849 5.87720194 14.78555016 4 20 C2 22 2 22 -0.5 22.3125 C-1.325 22.209375 -2.15 22.10625 -3 22 C-5 19 -5 19 -5 16 C-4.01 16 -3.02 16 -2 16 C-2.33 15.01 -2.66 14.02 -3 13 C-1.33388095 12.957279 0.33382885 12.95936168 2 13 C2.33 13.33 2.66 13.66 3 14 C3.34615998 8.34605369 2.43425238 4.96993194 0 0 Z " fill="#8E8F8F" transform="translate(99,26)"/>
<path d="M0 0 C1.5 1.375 1.5 1.375 3 3 C3 3.66 3 4.32 3 5 C4.32 5.33 5.64 5.66 7 6 C6.01 6 5.02 6 4 6 C4 6.66 4 7.32 4 8 C3.34 8 2.68 8 2 8 C2 9.65 2 11.3 2 13 C0.68 13 -0.64 13 -2 13 C-2 12.34 -2 11.68 -2 11 C-3.32 10.67 -4.64 10.34 -6 10 C-6.625 6.625 -6.625 6.625 -7 3 C-6.34 2.34 -5.68 1.68 -5 1 C-4.67 1.66 -4.34 2.32 -4 3 C-2.68 2.67 -1.36 2.34 0 2 C0 1.34 0 0.68 0 0 Z " fill="#A2A2A2" transform="translate(20,113)"/>
<path d="M0 0 C0.87398437 0.5259375 0.87398437 0.5259375 1.765625 1.0625 C1.14816406 1.20945312 0.53070313 1.35640625 -0.10546875 1.5078125 C-10.42885343 4.24185958 -17.54909485 8.9587395 -23.234375 18.0625 C-25.56544409 22.08158463 -26.68522271 25.44962078 -27.234375 30.0625 C-29.234375 27.0625 -29.234375 27.0625 -29 24.65625 C-26.02327537 14.57183593 -18.87597074 7.63258933 -10.234375 2.0625 C-3.46216645 -1.45265725 -3.46216645 -1.45265725 0 0 Z " fill="#151515" transform="translate(81.234375,15.9375)"/>
<path d="M0 0 C0.886875 0.61875 1.77375 1.2375 2.6875 1.875 C7.99006195 4.96450924 14.00233814 5.31455293 20 6 C19.67 4.02 19.34 2.04 19 0 C21 2 21 2 21.125 5.625 C21.08375 6.73875 21.0425 7.8525 21 9 C13.02288479 9.38598945 5.77214455 8.51476303 -1 4 C-0.67 2.68 -0.34 1.36 0 0 Z " fill="#8E8B8C" transform="translate(66,166)"/>
<path d="M0 0 C0.66 0.33 1.32 0.66 2 1 C2.144375 2.0725 2.28875 3.145 2.4375 4.25 C2.73953451 7.93349171 2.73953451 7.93349171 4.5 10.4375 C6.56546113 13.96599609 6.65614913 16.94255976 7 21 C4.0762375 18.44611107 2.51405076 15.55890464 0.75 12.125 C0.20859375 11.09632813 -0.3328125 10.06765625 -0.890625 9.0078125 C-2.09740972 5.73589617 -2.09915053 4.26237231 -1 1 C-0.67 0.67 -0.34 0.34 0 0 Z " fill="#848182" transform="translate(58,147)"/>
<path d="M0 0 C11.02446483 -0.57798165 11.02446483 -0.57798165 15 3 C15 3.99 15 4.98 15 6 C14.01 5.690625 13.02 5.38125 12 5.0625 C8.02268878 3.91566793 4.11232621 3.43287644 0 3 C0 2.01 0 1.02 0 0 Z " fill="#D4D4D4" transform="translate(120,132)"/>
<path d="M0 0 C9.23805298 -0.48550351 16.54022812 0.13267571 25 4 C24.01 4.66 23.02 5.32 22 6 C20.19514138 5.28486734 18.39280753 4.56254597 16.60546875 3.8046875 C11.26176526 2.15430831 5.55719114 2.22634627 0 2 C0 1.34 0 0.68 0 0 Z " fill="#2A2A2A" transform="translate(81,14)"/>
<path d="M0 0 C7.26 0.66 14.52 1.32 22 2 C21.67 2.66 21.34 3.32 21 4 C6.21867882 4.55353075 6.21867882 4.55353075 0 1 C0 0.67 0 0.34 0 0 Z " fill="#2F2F2F" transform="translate(74,85)"/>
<path d="M0 0 C0.21527344 0.61746094 0.43054688 1.23492187 0.65234375 1.87109375 C2.5064821 4.80009491 4.28807448 5.07633012 7.5625 6.0625 C10.56640625 6.97265625 10.56640625 6.97265625 13 8 C13.33 8.99 13.66 9.98 14 11 C8.58609132 10.53328373 4.79482068 9.75702189 0 7 C0 4.69 0 2.38 0 0 Z " fill="#918E8E" transform="translate(115,147)"/>
<path d="M0 0 C0.66 0.33 1.32 0.66 2 1 C6.65275976 1.3052622 6.65275976 1.3052622 11 0 C10 3 10 3 8 4 C5.68545539 3.96271489 3.37183125 3.84717512 1.0625 3.6875 C-0.18402344 3.60886719 -1.43054688 3.53023437 -2.71484375 3.44921875 C-6 3 -6 3 -9 1 C-5.77390955 -0.07536348 -3.37822416 -0.14375422 0 0 Z " fill="#8A8788" transform="translate(139,157)"/>
<path d="M0 0 C0.33 0 0.66 0 1 0 C0.85892253 1.45880109 0.71197585 2.91703551 0.5625 4.375 C0.48128906 5.18710938 0.40007812 5.99921875 0.31640625 6.8359375 C0 9 0 9 -1 11 C-0.071875 11.268125 0.85625 11.53625 1.8125 11.8125 C4.76240366 12.91148371 6.05615186 13.62418561 8 16 C7.67 16.66 7.34 17.32 7 18 C6.34 17.34 5.68 16.68 5 16 C0.98141147 13.32094098 -1.25305716 13.67817337 -6 14 C-5.505 13.67 -5.01 13.34 -4.5 13 C-2.11820439 9.82427253 -2.80831774 6.89753934 -3 3 C-2.01 3.33 -1.02 3.66 0 4 C0 2.68 0 1.36 0 0 Z " fill="#8B8789" transform="translate(77,148)"/>
<path d="M0 0 C0.625 1.875 0.625 1.875 1 4 C0.34 4.66 -0.32 5.32 -1 6 C-1.99 6 -2.98 6 -4 6 C-4 6.99 -4 7.98 -4 9 C-6.97 8.505 -6.97 8.505 -10 8 C-10 6.35 -10 4.7 -10 3 C-9.34 3 -8.68 3 -8 3 C-7.67 2.34 -7.34 1.68 -7 1 C-6.67 1.99 -6.34 2.98 -6 4 C-4.68 4 -3.36 4 -2 4 C-1.34 2.68 -0.68 1.36 0 0 Z " fill="#D0D0D0" transform="translate(32,118)"/>
<path d="M0 0 C1.03125 0.639375 2.0625 1.27875 3.125 1.9375 C6.38609658 3.81711371 9.22046944 4.63126531 13 5 C10.82159731 7.17840269 9.99647543 7.64457864 7 8 C4.859375 7.22265625 4.859375 7.22265625 2.75 6.0625 C2.04359375 5.68222656 1.3371875 5.30195313 0.609375 4.91015625 C0.07828125 4.60980469 -0.4528125 4.30945313 -1 4 C-0.67 2.68 -0.34 1.36 0 0 Z " fill="#959394" transform="translate(66,166)"/>
<path d="M0 0 C1.32 0 2.64 0 4 0 C3.67 2.64 3.34 5.28 3 8 C-0.3 7.34 -3.6 6.68 -7 6 C-7 5.67 -7 5.34 -7 5 C-5.02 5 -3.04 5 -1 5 C-0.67 3.35 -0.34 1.7 0 0 Z " fill="#514C4E" transform="translate(27,101)"/>
<path d="M0 0 C0.99 0.33 1.98 0.66 3 1 C2.66226563 1.4846875 2.32453125 1.969375 1.9765625 2.46875 C-1.21941664 7.27195564 -2.88821408 11.33999894 -4 17 C-6 14 -6 14 -5.78515625 11.61328125 C-4.9607941 8.86950874 -3.8769687 6.66043341 -2.4375 4.1875 C-1.98246094 3.39730469 -1.52742188 2.60710938 -1.05859375 1.79296875 C-0.53458984 0.90544922 -0.53458984 0.90544922 0 0 Z " fill="#242424" transform="translate(58,29)"/>
<path d="M0 0 C0.99 0 1.98 0 3 0 C4.28571429 7.42857143 4.28571429 7.42857143 3 11 C2.34 11 1.68 11 1 11 C1.33 9.35 1.66 7.7 2 6 C0.68 5.67 -0.64 5.34 -2 5 C-1.34 3.35 -0.68 1.7 0 0 Z " fill="#B0B0B0" transform="translate(175,42)"/>
<path d="M0 0 C0.49628906 0.38671875 0.99257813 0.7734375 1.50390625 1.171875 C5.84883147 4.50270951 10.18629161 7.39257462 15 10 C14.34 10.66 13.68 11.32 13 12 C2.89168279 5.52030948 2.89168279 5.52030948 0 2 C0 1.34 0 0.68 0 0 Z " fill="#101010" transform="translate(60,74)"/>
<path d="M0 0 C1.65 0 3.3 0 5 0 C6.125 3.75 6.125 3.75 5 6 C3.35 6 1.7 6 0 6 C0 4.02 0 2.04 0 0 Z " fill="#161616" transform="translate(96,39)"/>
<path d="M0 0 C1.65 0.33 3.3 0.66 5 1 C4.67 2.65 4.34 4.3 4 6 C2.35 5.67 0.7 5.34 -1 5 C-0.67 3.35 -0.34 1.7 0 0 Z " fill="#080808" transform="translate(76,39)"/>
<path d="M0 0 C2.1519437 3.22791555 2.20086443 4.28400809 2 8 C2.66 6.68 3.32 5.36 4 4 C4.66 4.33 5.32 4.66 6 5 C5.34 6.65 4.68 8.3 4 10 C2.68 9.67 1.36 9.34 0 9 C-1.125 2.25 -1.125 2.25 0 0 Z " fill="#8A8A8A" transform="translate(14,114)"/>
<path d="M0 0 C4.83256305 0.41421969 6.82679218 2.46413986 10 6 C6.62972148 6 5.93297304 5.50175992 3.3125 3.5625 C2.68988281 3.11003906 2.06726563 2.65757813 1.42578125 2.19140625 C0.95527344 1.79824219 0.48476562 1.40507812 0 1 C0 0.67 0 0.34 0 0 Z " fill="#191919" transform="translate(104,19)"/>
<path d="M0 0 C4.95 0.99 4.95 0.99 10 2 C10 2.33 10 2.66 10 3 C8.02 3 6.04 3 4 3 C3.67 3.66 3.34 4.32 3 5 C2.01 5 1.02 5 0 5 C0 3.35 0 1.7 0 0 Z " fill="#5A5657" transform="translate(162,56)"/>
<path d="M0 0 C0.66 0 1.32 0 2 0 C2.66 1.32 3.32 2.64 4 4 C3.01 4.495 3.01 4.495 2 5 C2 5.99 2 6.98 2 8 C0.4375 6.8125 0.4375 6.8125 -1 5 C-0.6875 2.3125 -0.6875 2.3125 0 0 Z " fill="#D7D7D7" transform="translate(160,48)"/>
<path d="M0 0 C0.33 0 0.66 0 1 0 C1.08114106 1.77007714 1.13925505 3.54122098 1.1875 5.3125 C1.23970703 6.79169922 1.23970703 6.79169922 1.29296875 8.30078125 C1 11 1 11 -0.51171875 12.85546875 C-1.00285156 13.23316406 -1.49398437 13.61085938 -2 14 C-1.7834375 13.0409375 -1.7834375 13.0409375 -1.5625 12.0625 C-0.82763202 8.06155212 -0.41418889 4.04495104 0 0 Z " fill="#6D6E6E" transform="translate(103,33)"/>
<path d="M0 0 C0.99 0.33 1.98 0.66 3 1 C3.33 3.64 3.66 6.28 4 9 C1.27573689 6.64722731 0.1858237 4.37503669 -1 1 C-0.67 0.67 -0.34 0.34 0 0 Z " fill="#8C8A8B" transform="translate(61,159)"/>
<path d="M0 0 C0.66 0 1.32 0 2 0 C1.67 2.31 1.34 4.62 1 7 C0.01 6.67 -0.98 6.34 -2 6 C-1.125 1.125 -1.125 1.125 0 0 Z " fill="#E2E2E2" transform="translate(20,118)"/>
<path d="M0 0 C0.33 1.32 0.66 2.64 1 4 C-0.65 4 -2.3 4 -4 4 C-4.33 3.01 -4.66 2.02 -5 1 C-3.35 0.67 -1.7 0.34 0 0 Z " fill="#9FA0A0" transform="translate(80,44)"/>
<path d="M0 0 C0.99 0.33 1.98 0.66 3 1 C2.67 2.65 2.34 4.3 2 6 C1.01 6.33 0.02 6.66 -1 7 C-0.67 4.69 -0.34 2.38 0 0 Z " fill="#E2E2E2" transform="translate(171,40)"/>
</svg>
